<svg xmlns="http://www.w3.org/2000/svg" version="1.1" xmlns:xlink="http://www.w3.org/1999/xlink" xmlns:svgjs="http://svgjs.dev/svgjs" viewBox="0 0 11.180433236803719 6.838438649074339"><g transform="matrix(1,0,0,1,5.590216618401859,5.754184555086541)"><g><path d=" M -2.2870196491853645 -2.0044953658732805 Q -2.2882759962343515 -1.9945746001723628 -2.296162792511734 -1.9880134688309656 Q -2.3040495887891166 -1.9814523374895683 -2.314962431060126 -1.982834319243454 L -2.9598122016197648 -2.06449687742761 Q -2.970725043890774 -2.0658788591814954 -2.976727319594676 -2.0741988763914745 Q -2.9827295952985784 -2.0825188936014536 -2.9814732482495914 -2.092439659302371 L -2.969789220694012 -2.184702780320904 Q -2.9679047001205316 -2.1995839288722805 -2.959025827273057 -2.206019425508779 Q -2.950146954425583 -2.2124549221452776 -2.9458017440305198 -2.214928613035958 L -2.5863710010680547 -2.3548805369721806 L -2.8993169032180006 -2.5819969439699064 Q -2.9030339400885703 -2.5844836359296846 -2.910028292362564 -2.5929292878445622 Q -2.9170226446365577 -2.60137493975944 -2.915138124063077 -2.6162560883108164 L -2.903454096507498 -2.7085192093293493 Q -2.9020721147536124 -2.719432051600359 -2.894248135828679 -2.72549714465671 Q -2.886424156903746 -2.7315622377130615 -2.8755113146327362 -2.730180255959176 L -2.2306615440730972 -2.64851769777502 Q -2.219748701802088 -2.6471357160211344 -2.2136836087457366 -2.639311737096201 Q -2.207618515689385 -2.631487758171268 -2.209000497443271 -2.6205749159002587 L -2.2218152373429385 -2.5193831057509 Q -2.2230715843919255 -2.5094623400499825 -2.230895563316859 -2.503397246993631 Q -2.238719542241792 -2.49733215393728 -2.2496323845128012 -2.4987141356911655 L -2.6504313188298694 -2.549470556470241 L -2.430272702670167 -2.393575772302697 Q -2.421972187063835 -2.38748467710815 -2.4160327287123824 -2.378668621613125 Q -2.4100932703609295 -2.3698525661181002 -2.4117265215246126 -2.3569555707069076 L -2.4176313526548516 -2.3103279719125953 Q -2.419264603818535 -2.2974309765014023 -2.4272142174483666 -2.2903738068749595 Q -2.4351638310781984 -2.2833166372485163 -2.4447206937335175 -2.279486966742146 L -2.69679052493749 -2.183394302106384 L -2.295991590620422 -2.132637881327309 Q -2.2850787483494126 -2.131255899573423 -2.279013655293061 -2.12343192064849 Q -2.27294856223671 -2.1156079417235567 -2.2742049092856966 -2.105687176022639 L -2.2870196491853645 -2.0044953658732805 M -2.166431145508417 -2.76145742644965 Q -2.170451789208386 -2.7534054438218805 -2.178947539128421 -2.750941253631123 Q -2.187443289048456 -2.7484770634403652 -2.1946006069398067 -2.7520509689514485 Q -2.1990739306219007 -2.754284659895876 -2.2022058513786904 -2.7569662773878365 L -2.6711515879412637 -3.2571491401088473 Q -2.6796526854752147 -3.264747254395844 -2.682789359666596 -3.2763731425346965 Q -2.685926033857978 -3.287999030673549 -2.678778222835811 -3.3023136664562505 L -2.6215957346584764 -3.4168307527178605 Q -2.6144479236363094 -3.4311453885005614 -2.60326996204499 -3.4356234656172475 Q -2.5920920004536705 -3.4401015427339336 -2.5809104737864073 -3.43787141686545 L -1.8993173593143702 -3.3635489686798 Q -1.8952919621798094 -3.3626566806606775 -1.8908186384977153 -3.36042298971625 Q -1.8836613206063646 -3.356849084205167 -1.8805264289529549 -3.3485772975588985 Q -1.877391537299545 -3.3403055109126303 -1.881412180999514 -3.332253528284861 L -1.9278729526435985 -3.239208395697303 Q -1.9345740254768797 -3.2257884246510207 -1.9439638459540096 -3.2226529388182867 Q -1.9533536664311395 -3.2195174529855533 -1.9596151312274233 -3.220408552646028 L -2.079027323828405 -3.2319726461351865 L -2.205007493094096 -2.9796771904650776 L -2.124014784737261 -2.8911719296439 Q -2.119540272696519 -2.88670217103775 -2.116404786863785 -2.87731235056062 Q -2.113269301031051 -2.86792253008349 -2.1199703738643327 -2.8545025590372077 L -2.166431145508417 -2.76145742644965 M -2.3038899311033636 -3.0704090120787946 L -2.21141512600408 -3.2556046125174913 L -2.515092603547901 -3.2921147430653557 L -2.3038899311033636 -3.0704090120787946 M -1.6097829349053978 -3.6083368080101215 Q -1.675638443177129 -3.5412618348064595 -1.744704963985485 -3.5158784602587576 Q -1.813771484793841 -3.490495085711056 -1.8825136329932 -3.506835742397291 Q -1.9512557811925586 -3.5231763990835256 -2.014724017579049 -3.581286492612865 Q -2.0461078405155297 -3.610698321149895 -2.0810724542068004 -3.6450272563128183 Q -2.1160370678980707 -3.679356191475742 -2.146733273352213 -3.7108957376157403 Q -2.2045708395680896 -3.7718860313863405 -2.2210995349627476 -3.8392659410668277 Q -2.237628230357406 -3.906645850747315 -2.2128156223528683 -3.976879991192067 Q -2.188003014348331 -4.047114131636819 -2.123548687103658 -4.112761977751042 Q -2.071704989102508 -4.165565680060307 -2.0189142129952042 -4.192214018807564 Q -1.966123436887901 -4.218862357554821 -1.9177373092598429 -4.2246097615915374 Q -1.8693511816317847 -4.230357165628254 -1.8296510837512905 -4.219407178035604 Q -1.7899509858707965 -4.208457190442954 -1.765702798381514 -4.186051267041215 Q -1.7592807264790356 -4.179745952419454 -1.758846106519531 -4.170910732813196 Q -1.7584114865600267 -4.162075513206938 -1.7654173916953173 -4.15493987775974 L -1.8522906153729202 -4.066457998214484 Q -1.8592965205082108 -4.059322362767286 -1.8660040225114998 -4.058200125325444 Q -1.8727115245147887 -4.057077887883601 -1.8812223949266635 -4.059828357812954 Q -1.8989706723263233 -4.067444042243438 -1.9230307508633402 -4.069344731800569 Q -1.9470908294003568 -4.071245421357699 -1.9745825088334699 -4.061800445870862 Q -2.0020741882665827 -4.052355470384025 -2.031498989834803 -4.022385801505793 Q -2.0756361921871336 -3.9774312981884457 -2.0776601489551902 -3.928266741859714 Q -2.0796841057232474 -3.879102185530982 -2.028268611409849 -3.8244172063821433 Q -1.969003918104533 -3.762025731584485 -1.903394991083883 -3.701813866514559 Q -1.8456352630551511 -3.6493084970934517 -1.795101958277338 -3.6522470525604565 Q -1.744568653499525 -3.6551856080274616 -1.7004314511471945 -3.700140111344809 Q -1.6717072400925033 -3.729396216678321 -1.6592847198012461 -3.7627455943278862 Q -1.646862199509989 -3.796094971977451 -1.655671449639251 -3.831370985246528 Q -1.6644806997685129 -3.866646998515605 -1.6987317499150636 -3.900275343165 L -1.7165708385330587 -3.9177901060032263 L -1.7929352045077258 -3.8400116796287675 Q -1.7999411096430165 -3.8328760441815692 -1.8101969698231184 -3.833135528219999 Q -1.8204528300032203 -3.833395012258428 -1.8275884654504182 -3.8404009173937186 L -1.873256532312486 -3.885238710259578 Q -1.8811057313044037 -3.8929452059083975 -1.881196542522739 -3.9028442843161395 Q -1.8812873537410741 -3.912743362723882 -1.8742814486057837 -3.9198789981710798 L -1.702636772791165 -4.094702066627432 Q -1.6949302771423453 -4.102551265619351 -1.6850311987346034 -4.102642076837686 Q -1.6751321203268614 -4.10273288805602 -1.6672829213349436 -4.095026392407201 L -1.5895044949604848 -4.0186620264325335 Q -1.5281380301145815 -3.958411242269035 -1.510882798144013 -3.88891658801677 Q -1.4936275661734442 -3.819421933764505 -1.5191277916603199 -3.7470600757167842 Q -1.5446280171471956 -3.6746982176690635 -1.6097829349053978 -3.6083368080101215 M -1.26069596409899 -3.9115662827236077 Q -1.269987209367715 -3.905677924603011 -1.2796469569791016 -3.9078433982427287 Q -1.289306704590488 -3.9100088718824466 -1.2951950627110849 -3.919300117151171 L -1.643143497109989 -4.4683282466667285 Q -1.6490318552305858 -4.477619491935453 -1.646866381590868 -4.48727923954684 Q -1.64470090795115 -4.496938987158226 -1.6354096626824253 -4.502827345278823 L -1.5399632340127978 -4.563316842335864 Q -1.530671988744073 -4.5692052004564605 -1.5210122411326863 -4.567039726816742 Q -1.5113524935212999 -4.564874253177025 -1.505464135400703 -4.5555830079083 L -1.157515701001799 -4.006554878392743 Q -1.151627342881202 -3.997263633124018 -1.15379281652092 -3.9876038855126312 Q -1.1559582901606378 -3.9779441379012446 -1.1652495354293626 -3.9720557797806477 L -1.26069596409899 -3.9115662827236077 M -0.7448567375074856 -4.15729667625372 Q -0.8335093495376431 -4.126044246264512 -0.9057561328635514 -4.133975343228946 Q -0.9780029161894597 -4.14190644019338 -1.032069576268532 -4.186995754536072 Q -1.086136236347604 -4.232085068878764 -1.1188338092963463 -4.312806000013517 Q -1.1334083012281304 -4.351141156005509 -1.1490345162227347 -4.395467462020588 Q -1.164660731217339 -4.439793768035667 -1.1780139426801666 -4.480680095134454 Q -1.2028341398179465 -4.5631176946509475 -1.1885251150865248 -4.632311276804465 Q -1.174216090355103 -4.701504858957982 -1.1226097644579147 -4.753627667088331 Q -1.071003438560726 -4.80575047521868 -0.9842370523184444 -4.8363379598889695 Q -0.9210484884246087 -4.858613628072767 -0.863525244047213 -4.860866705146105 Q -0.8060019996698171 -4.863119782219443 -0.7576383588095941 -4.846239075991819 Q -0.7092747179493709 -4.829358369764194 -0.6742299099259728 -4.79611891383298 Q -0.6391851019025746 -4.762879457901764 -0.6196778251633366 -4.713559419841978 Q -0.6166855712281996 -4.705071403796538 -0.6208209690820377 -4.697251654146423 Q -0.6249563669358756 -4.689431904496308 -0.6334443829813162 -4.686439650561171 L -0.7409592528902307 -4.648537767382769 Q -0.7522766076174848 -4.644548095469253 -0.7608732338318077 -4.647879464216663 Q -0.7694698600461306 -4.651210832964072 -0.7778969288543173 -4.6630845228413635 Q -0.8116595091715052 -4.713741093691802 -0.8519828589674424 -4.722853034277345 Q -0.8923062087633797 -4.73196497486289 -0.9413480792481477 -4.7146763965709875 Q -0.9998210786722941 -4.694063091684488 -1.022469072432428 -4.650028237550053 Q -1.0451170661925617 -4.605993383415619 -1.0216810647770616 -4.5304900468161495 Q -0.9972476453831827 -4.4521573715348675 -0.9658256579878379 -4.372047080634592 Q -0.9367309792087108 -4.298538579991881 -0.8914748446053198 -4.278441757338542 Q -0.8462187100019288 -4.258344934685203 -0.7877457105777823 -4.278958239571702 Q -0.7387038400930144 -4.296246817863605 -0.7127039671960633 -4.329269637388025 Q -0.6867040942991123 -4.362292456912445 -0.6927839280326431 -4.421647621993275 Q -0.6939985663487866 -4.437124206040181 -0.6892253757182498 -4.444638635573057 Q -0.6844521850877132 -4.452153065105933 -0.673134830360459 -4.456142737019449 L -0.5656199604515446 -4.494044620197851 Q -0.557131944406104 -4.497036874132988 -0.5490068746387501 -4.493539269055848 Q -0.540881804871396 -4.490041663978709 -0.537889550936259 -4.481553647933269 Q -0.5221547257727726 -4.430903719235643 -0.5286068850826394 -4.383035466288203 Q -0.5350590443925065 -4.335167213340763 -0.562144435047311 -4.291688694356366 Q -0.5892298257021156 -4.248210175371968 -0.6354489996578827 -4.213891259904743 Q -0.68166817361365 -4.179572344437518 -0.7448567375074856 -4.15729667625372 M -0.08029127388051183 -4.313565111156129 Q -0.09024025149592786 -4.31457399390846 -0.09699576678085836 -4.322294940303499 Q -0.10375128206578885 -4.330015886698539 -0.10264151103822498 -4.340959762075496 L -0.03706413213672413 -4.987643307077539 Q -0.035954361109160254 -4.9985871824544965 -0.02778640997096668 -5.0047948047210395 Q -0.019618458832773078 -5.011002426987583 -0.009669481217357029 -5.009993544235252 L 0.08285601060601214 -5.000610934638575 Q 0.09777947702913622 -4.99909761051008 0.1044341040388336 -4.990381766353499 Q 0.11108873104853104 -4.9816659221969175 0.11366987123222352 -4.977383666325052 L 0.2625299340518651 -4.621549882519562 L 0.48178204300261696 -4.940055004488813 Q 0.4841753916266325 -4.9438328189845135 0.4924442310400592 -4.9510353390125985 Q 0.5007130704534859 -4.958237859040683 0.5156365368766099 -4.956724534912187 L 0.6081620286999792 -4.94734192531551 Q 0.6191059040769368 -4.946232154287946 0.6253639704810964 -4.938561652030524 Q 0.6316220368852561 -4.930891149773101 0.6305122658576922 -4.919947274396144 L 0.5649348869561913 -4.273263729394101 Q 0.5638251159286275 -4.262319854017143 0.5561546136712047 -4.256061787612984 Q 0.548484111413782 -4.249803721208823 0.5375402360368243 -4.250913492236387 L 0.4360606643595807 -4.261204096310162 Q 0.42611168674416466 -4.262212979062492 0.41985362034000495 -4.269883481319915 Q 0.41359555393584524 -4.277553983577338 0.41470532496340906 -4.288497858954296 L 0.4554641881575727 -4.690436554617103 L 0.3051007629363164 -4.4664636983248025 Q 0.2992182796515107 -4.458014059847094 0.2905528796325463 -4.451856881718167 Q 0.28188747961358196 -4.4456997035892405 0.268953808713541 -4.447011251167271 L 0.22219361392108575 -4.451753000103225 Q 0.2092599430210448 -4.453064547681255 0.20200697885534355 -4.460835938213911 Q 0.1947540146896423 -4.468607328746567 0.19068752035903194 -4.478065849976606 L 0.0883469141487209 -4.727664328178109 L 0.04758805095455726 -4.325725632515302 Q 0.04647827992699338 -4.314781757138344 0.03880777766957061 -4.308523690734184 Q 0.031137275412147836 -4.302265624330024 0.021188297796731786 -4.303274507082355 L -0.08029127388051183 -4.313565111156129 M 0.7379466629455002 -4.181134667395323 Q 0.7279261391832843 -4.185672189134209 0.7244369560775294 -4.194936399907638 Q 0.7209477729717745 -4.204200610681067 0.725485294710661 -4.2142211344432825 L 0.9936115792812337 -4.806342993119671 Q 0.9981491010201203 -4.816363516881887 1.007413311793549 -4.819852699987641 Q 1.016677522566978 -4.823341883093397 1.0266980463291937 -4.81880436135451 L 1.4393614339913534 -4.631940966107634 Q 1.4493819577535692 -4.627403444368747 1.452871140859324 -4.618139233595318 Q 1.4563603239650789 -4.6088750228218895 1.4518228022261923 -4.598854499059674 L 1.4188226441251988 -4.525977962607195 Q 1.4146976243625746 -4.5168683955506355 1.4054334135891458 -4.513379212444881 Q 1.396169202815717 -4.509890029339125 1.3861486790535014 -4.514427551078012 L 1.0909987064209632 -4.648078191387036 L 1.0262358961477633 -4.505057988599047 L 1.3013448212558698 -4.380482391767797 Q 1.3113653450180855 -4.37594487002891 1.3148545281238406 -4.366680659255481 Q 1.3183437112295953 -4.357416448482052 1.313806189490709 -4.347395924719836 L 1.2832810432472899 -4.279985128501294 Q 1.2791560234846655 -4.270875561444734 1.2698918127112369 -4.267386378338979 Q 1.260627601937808 -4.263897195233224 1.2506070781755922 -4.268434716972111 L 0.9754981530674858 -4.393010313803361 L 0.9086728329129738 -4.245435327487092 L 1.2111104591907598 -4.108484671367969 Q 1.2211309829529755 -4.103947149629082 1.2246201660587304 -4.094682938855653 Q 1.2281093491644852 -4.0854187280822245 1.2235718274255987 -4.075398204320009 L 1.1909841713008675 -4.003432624573186 Q 1.186446649561981 -3.993412100810971 1.177182438788552 -3.989922917705216 Q 1.1679182280151235 -3.9864337345994607 1.1578977042529077 -3.9909712563383475 L 0.7379466629455002 -4.181134667395323 M 1.3115347284194676 -3.893246467757873 Q 1.303301735254621 -3.9005415224901956 1.3027048653430149 -3.9104230075156674 Q 1.3021079954314088 -3.9203044925411388 1.3094030501637315 -3.9285374857059856 L 1.7404744661646294 -4.415032536356021 Q 1.7477695208969524 -4.423265529520868 1.757651005922424 -4.423862399432474 Q 1.7675324909478956 -4.42445926934408 1.7757654841127424 -4.417164214611757 L 1.9636274190560639 -4.250704329356026 Q 2.0384728114637616 -4.184385649971272 2.0677288403707217 -4.116375836175063 Q 2.096984869277682 -4.048366022378853 2.0834321825546387 -3.9795414287906086 Q 2.0698794958315956 -3.910716835202364 2.012352779027319 -3.8427780623718175 Q 1.9839210140221044 -3.8091829029185833 1.9620358498251358 -3.784483923424043 Q 1.940150685628167 -3.759784943929503 1.910885199568646 -3.72826461198804 Q 1.8469634659685943 -3.660647957430424 1.7810616381252773 -3.6375406190525443 Q 1.7151598102819605 -3.614433280674665 1.6461978408743776 -3.636124218308331 Q 1.577235871466795 -3.657815155941998 1.5031389329831741 -3.7234706485329037 L 1.3115347284194676 -3.893246467757873 M 1.4973786506521147 -3.900929993588233 L 1.584947759769121 -3.8233371387080717 Q 1.6223704559729701 -3.790177799015695 1.6562687834511465 -3.7801826304737283 Q 1.6901671109293228 -3.7701874619317617 1.7233217175525608 -3.784232819159627 Q 1.7564763241757988 -3.798278176387492 1.7917104913799475 -3.836534593645647 Q 1.811691362325603 -3.857576570650032 1.8273188855461349 -3.8744594175068787 Q 1.8429464087666667 -3.8913422643637254 1.8578254780631216 -3.9088882980144195 Q 1.8727045473595765 -3.926434331665114 1.8905253236632305 -3.948054228333117 Q 1.9387674253536415 -4.005514646226585 1.9349919883064195 -4.056291078506753 Q 1.9312165512591972 -4.107067510786921 1.8743340530293469 -4.157469707119334 L 1.7905072135327254 -4.231746628030257 L 1.4973786506521147 -3.900929993588233 M 1.8164913418005828 -3.3836210716634594 Q 1.810133534719358 -3.3925976127076436 1.8118000017866955 -3.402355834241995 Q 1.8134664688540332 -3.4121140557763465 1.8224430098982174 -3.4184718628575714 L 2.352874980690923 -3.79416046311178 Q 2.3618515217351073 -3.8005182701930047 2.3716097432694587 -3.7988518031256673 Q 2.38136796480381 -3.7971853360583294 2.387725771885035 -3.788208795014145 L 2.453037790083074 -3.695995237014798 Q 2.459395597164299 -3.6870186959706137 2.4577291300969617 -3.6772604744362622 Q 2.4560626630296243 -3.667502252901911 2.44708612198544 -3.661144445820686 L 1.9166541511927342 -3.285455845566478 Q 1.90767761014855 -3.2790980384852526 1.8979193886141985 -3.2807645055525905 Q 1.8881611670798473 -3.282430972619928 1.8818033599986221 -3.291407513664112 L 1.8164913418005828 -3.3836210716634594 M 2.0883921575954716 -2.8810840278895102 Q 2.0526275628995414 -2.968014423990275 2.0568374195441232 -3.0405732077936993 Q 2.0610472761887046 -3.1131319915971236 2.1033000799657557 -3.16944318562618 Q 2.1455528837428064 -3.2257543796552364 2.2244878420617726 -3.2625548192610765 Q 2.262023817013213 -3.279079061586969 2.305489015063596 -3.296961358934934 Q 2.348954213113978 -3.314843656282899 2.3891007197844973 -3.3302792645363484 Q 2.470154681948854 -3.3593008981474854 2.53999188057117 -3.3485647122052073 Q 2.609829079193486 -3.3378285262629293 2.6645337166951437 -3.2889674718759006 Q 2.719238354196802 -3.240106417488872 2.7542420000694143 -3.155025604283868 Q 2.779733785650556 -3.093064577275876 2.7849384236778234 -3.03573298264425 Q 2.790143061705091 -2.978401388012623 2.7757687118392687 -2.9292345489243217 Q 2.761394361973447 -2.88006770983602 2.7299987667710806 -2.8433618982813202 Q 2.698603171568714 -2.80665608672662 2.650350173654367 -2.784641360012941 Q 2.6420270506234425 -2.7812170903080116 2.634005218260377 -2.7849453882492816 Q 2.625983385897312 -2.7886736861905517 2.6225591161923827 -2.796996809221476 L 2.579185033263276 -2.9024230342798503 Q 2.57461934032337 -2.9135205316544157 2.577504768129041 -2.922276918259532 Q 2.5803901959347124 -2.9310333048646484 2.5918153785584037 -2.940059112419394 Q 2.640670957808469 -2.9763789744254723 2.6476997652537806 -3.0171171121577833 Q 2.654728572699092 -3.057855249890094 2.634943903292833 -3.105944405179879 Q 2.6113544897699854 -3.163281474948468 2.5662145017223312 -3.183637837075765 Q 2.5210745136746775 -3.2039941992030623 2.446874566057143 -3.176711095025656 Q 2.369900244095968 -3.1482865676132734 2.291509602813223 -3.1127913938669725 Q 2.219592501665642 -3.0799595410022835 2.2018466712574236 -3.033730918882186 Q 2.1841008408492053 -2.987502296762089 2.2076902543720527 -2.9301652269934992 Q 2.227474923778312 -2.8820760717037146 2.261789572969511 -2.8578066495662813 Q 2.2961042221607104 -2.833537227428848 2.3550687679010016 -2.8426576630347338 Q 2.370462537265844 -2.844665613418094 2.3782122111107986 -2.8402846825470545 Q 2.385961884955753 -2.835903751676015 2.390527577895659 -2.824806254301449 L 2.4339016608247652 -2.7193800292430748 Q 2.437325930529695 -2.7110569062121503 2.4342502655181946 -2.7027629153309745 Q 2.431174600506694 -2.694468924449798 2.4228514774757697 -2.6910446547448688 Q 2.3730765819147868 -2.6727290938227117 2.3249401125994322 -2.6767141059747526 Q 2.2768036432840772 -2.6806991181267934 2.231991340485549 -2.70551559486893 Q 2.1871790376870206 -2.730332071611066 2.150531490431817 -2.774727536246292 Q 2.113883943176613 -2.8191230008815182 2.0883921575954716 -2.8810840278895102 M 2.2470143269679337 -2.2286099005595625 Q 2.238470158225774 -2.3242289215779017 2.260618425982485 -2.390965000541061 Q 2.2827666937391955 -2.4577010795042202 2.3246510518364247 -2.4945751970771615 Q 2.366535409933654 -2.5314493146501027 2.417155011334185 -2.5379804672322566 Q 2.425123263085713 -2.5386924812941034 2.4321314781802146 -2.5332948039057075 Q 2.4391396932747162 -2.5278971265173116 2.4399407090942935 -2.5189328432968425 L 2.449463897171492 -2.4123574761201523 Q 2.4506209200219926 -2.3994090670239188 2.4457657592469326 -2.391947337073812 Q 2.4409105984718726 -2.3844856071237053 2.4334763572667293 -2.377797404248213 Q 2.4171668345988477 -2.3693121540842013 2.402609858340619 -2.3524496381919224 Q 2.3880528820823903 -2.335587122299643 2.379997599117242 -2.3077597541820616 Q 2.371942316152093 -2.2799323860644805 2.3755023864613265 -2.2400911273068393 Q 2.38128750071383 -2.175349081825672 2.4050967186878434 -2.144847095997436 Q 2.428905936661857 -2.1143451101692 2.464763069543734 -2.1175491734475096 Q 2.4906598877362005 -2.1198632191485114 2.5050388604789675 -2.1387177979786722 Q 2.5194178332217345 -2.1575723768088335 2.529028676403062 -2.196080579744623 Q 2.5386395195843896 -2.234588782680412 2.548061882639194 -2.297677760120718 Q 2.5573232543124385 -2.3738041484149885 2.5780494644895664 -2.4283653453565286 Q 2.5987756746666943 -2.4829265422980686 2.636756402578939 -2.5129259474131045 Q 2.674737130491184 -2.54292535252814 2.7344990186276457 -2.5482654579919894 Q 2.7942609067641073 -2.553605563455839 2.8435134280749823 -2.5248751067152684 Q 2.8927659493858577 -2.4961446499746978 2.9245008887766444 -2.438741308418103 Q 2.956235828167431 -2.381337966861508 2.9636229740590894 -2.2986673549394028 Q 2.969586091827055 -2.2319332465203536 2.9562411159092536 -2.179035594230736 Q 2.9428961399914524 -2.126137941941118 2.917081788033876 -2.0891938052884584 Q 2.8912674360762995 -2.052249668635799 2.860000429240401 -2.0313840441897435 Q 2.8287334224045013 -2.0105184197436876 2.7979454486250606 -2.006763333785091 Q 2.789977196873532 -2.0060513197232446 2.782968981779031 -2.0114489971116405 Q 2.7759607666845287 -2.0168466745000364 2.7751597508649515 -2.0258109577205055 L 2.765191553999099 -2.1373664822419007 Q 2.764301536421791 -2.147326796931311 2.7675736482357083 -2.1556510557137623 Q 2.770845760049626 -2.163975314496214 2.780361065950382 -2.1698454894182273 Q 2.805723873596464 -2.178135723932875 2.8225209353877547 -2.2092541865423865 Q 2.8393179971790454 -2.240372649151898 2.835134914565697 -2.2871861281921264 Q 2.8307738284368864 -2.3359916701702366 2.8103087119006194 -2.362776535395901 Q 2.7898435953643523 -2.3895614006215657 2.7529904310135342 -2.386268335585525 Q 2.7290856757589497 -2.3841322933999853 2.7139416820085196 -2.3682213080977816 Q 2.6987976882580895 -2.3523103227955784 2.68941785553804 -2.3168347151454776 Q 2.6800380228179908 -2.2813591074953767 2.670170650974532 -2.2232502873997757 Q 2.6600742392139063 -2.1339974864938105 2.640068549165576 -2.076990711758783 Q 2.6200628591172457 -2.019983937023756 2.5830336617950764 -1.9905715494009215 Q 2.546004464472907 -1.9611591617780872 2.4862425763364455 -1.9558190563142377 Q 2.4195084679173964 -1.9498559385462726 2.368361391493321 -1.9829350342604815 Q 2.3172143150692457 -2.0160141299746908 2.2859858974798803 -2.078984646368192 Q 2.2547574798905154 -2.1419551627616933 2.2470143269679337 -2.2286099005595625" fill="#3f170e" fill-rule="nonzero"></path></g><g><path d=" M -4.694962524414062 0.35999999999999993 Q -4.739462524414062 0.35999999999999993 -4.770212524414062 0.3434999999999999 Q -4.800962524414062 0.3269999999999999 -4.817212524414062 0.29699999999999993 Q -4.833462524414062 0.2669999999999999 -4.835462524414062 0.22649999999999992 Q -4.835962524414062 0.20449999999999993 -4.835962524414062 0.1797499999999999 Q -4.835962524414062 0.15499999999999992 -4.835462524414062 0.13249999999999992 Q -4.833462524414062 0.09199999999999992 -4.817212524414062 0.062249999999999917 Q -4.800962524414062 0.03249999999999992 -4.769962524414062 0.01624999999999993 Q -4.738962524414062 -5.551115123125783e-17 -4.694962524414062 -5.551115123125783e-17 Q -4.659962524414062 -5.551115123125783e-17 -4.633962524414062 0.009999999999999898 Q -4.607962524414062 0.019999999999999907 -4.591212524414062 0.03524999999999989 Q -4.574462524414062 0.050499999999999934 -4.566212524414062 0.06699999999999989 Q -4.557962524414062 0.08349999999999991 -4.557462524414062 0.09599999999999992 Q -4.556962524414062 0.10049999999999992 -4.559962524414062 0.1032499999999999 Q -4.562962524414062 0.10599999999999993 -4.567962524414062 0.10599999999999993 L -4.597462524414062 0.10599999999999993 Q -4.6024625244140625 0.10599999999999993 -4.604712524414062 0.10399999999999993 Q -4.606962524414062 0.10199999999999992 -4.608962524414062 0.09699999999999992 Q -4.613462524414062 0.08399999999999991 -4.623712524414062 0.0714999999999999 Q -4.633962524414062 0.05899999999999994 -4.651212524414062 0.050749999999999906 Q -4.668462524414062 0.04249999999999993 -4.694962524414062 0.04249999999999993 Q -4.734962524414062 0.04249999999999993 -4.759212524414062 0.06399999999999995 Q -4.7834625244140625 0.08549999999999991 -4.785462524414062 0.13499999999999993 Q -4.786962524414062 0.1794999999999999 -4.785462524414062 0.22399999999999992 Q -4.7834625244140625 0.2739999999999999 -4.758962524414062 0.2957499999999999 Q -4.734462524414062 0.31749999999999995 -4.694962524414062 0.31749999999999995 Q -4.668462524414062 0.31749999999999995 -4.647712524414062 0.30749999999999994 Q -4.626962524414062 0.29749999999999993 -4.614962524414062 0.27724999999999994 Q -4.602962524414062 0.2569999999999999 -4.602962524414062 0.22549999999999992 L -4.602962524414062 0.20449999999999993 L -4.677962524414062 0.20449999999999993 Q -4.682962524414062 0.20449999999999993 -4.686212524414062 0.20124999999999993 Q -4.689462524414062 0.19799999999999993 -4.689462524414062 0.19249999999999992 L -4.689462524414062 0.17649999999999993 Q -4.689462524414062 0.17099999999999993 -4.686212524414062 0.16774999999999993 Q -4.682962524414062 0.16449999999999992 -4.677962524414062 0.16449999999999992 L -4.564962524414062 0.16449999999999992 Q -4.559462524414062 0.16449999999999992 -4.556462524414062 0.16774999999999993 Q -4.553462524414062 0.17099999999999993 -4.553462524414062 0.17649999999999993 L -4.553462524414062 0.22449999999999992 Q -4.553462524414062 0.26549999999999996 -4.570212524414062 0.29599999999999993 Q -4.586962524414062 0.3264999999999999 -4.618962524414062 0.34324999999999994 Q -4.650962524414062 0.35999999999999993 -4.694962524414062 0.35999999999999993 M -4.350977905273437 0.35999999999999993 Q -4.393977905273437 0.35999999999999993 -4.424477905273437 0.34524999999999995 Q -4.454977905273437 0.3304999999999999 -4.471477905273437 0.2997499999999999 Q -4.487977905273437 0.2689999999999999 -4.489977905273437 0.22249999999999992 Q -4.490477905273437 0.20049999999999993 -4.490477905273437 0.1802499999999999 Q -4.490477905273437 0.15999999999999992 -4.489977905273437 0.13799999999999993 Q -4.487977905273437 0.09199999999999992 -4.470727905273437 0.061249999999999916 Q -4.453477905273437 0.030499999999999916 -4.422727905273437 0.01524999999999993 Q -4.391977905273437 -5.551115123125783e-17 -4.350977905273437 -5.551115123125783e-17 Q -4.310477905273437 -5.551115123125783e-17 -4.279727905273437 0.01524999999999993 Q -4.2489779052734375 0.030499999999999916 -4.2314779052734375 0.061249999999999916 Q -4.213977905273437 0.09199999999999992 -4.212477905273437 0.13799999999999993 Q -4.211477905273437 0.15999999999999992 -4.211477905273437 0.1802499999999999 Q -4.211477905273437 0.20049999999999993 -4.212477905273437 0.22249999999999992 Q -4.213977905273437 0.2689999999999999 -4.2307279052734375 0.2997499999999999 Q -4.2474779052734375 0.3304999999999999 -4.2779779052734375 0.34524999999999995 Q -4.308477905273437 0.35999999999999993 -4.350977905273437 0.35999999999999993 M -4.350977905273437 0.31749999999999995 Q -4.312977905273437 0.31749999999999995 -4.288727905273437 0.29449999999999993 Q -4.264477905273437 0.2714999999999999 -4.262477905273437 0.21999999999999992 Q -4.261477905273437 0.19749999999999993 -4.261477905273437 0.1797499999999999 Q -4.261477905273437 0.16199999999999992 -4.262477905273437 0.13999999999999993 Q -4.2634779052734375 0.10549999999999993 -4.275227905273437 0.08399999999999991 Q -4.286977905273437 0.062499999999999944 -4.306477905273437 0.052499999999999936 Q -4.3259779052734375 0.04249999999999993 -4.350977905273437 0.04249999999999993 Q -4.375977905273437 0.04249999999999993 -4.395477905273437 0.052499999999999936 Q -4.414977905273437 0.062499999999999944 -4.426727905273437 0.08399999999999991 Q -4.438477905273437 0.10549999999999993 -4.439977905273437 0.13999999999999993 Q -4.440477905273437 0.16199999999999992 -4.440477905273437 0.1797499999999999 Q -4.440477905273437 0.19749999999999993 -4.439977905273437 0.21999999999999992 Q -4.437977905273438 0.2714999999999999 -4.413477905273437 0.29449999999999993 Q -4.388977905273437 0.31749999999999995 -4.350977905273437 0.31749999999999995 M -4.007476928710937 0.35999999999999993 Q -4.050476928710937 0.35999999999999993 -4.080976928710937 0.34524999999999995 Q -4.111476928710937 0.3304999999999999 -4.127976928710937 0.2997499999999999 Q -4.1444769287109375 0.2689999999999999 -4.146476928710937 0.22249999999999992 Q -4.146976928710937 0.20049999999999993 -4.146976928710937 0.1802499999999999 Q -4.146976928710937 0.15999999999999992 -4.146476928710937 0.13799999999999993 Q -4.1444769287109375 0.09199999999999992 -4.127226928710937 0.061249999999999916 Q -4.109976928710937 0.030499999999999916 -4.079226928710938 0.01524999999999993 Q -4.0484769287109375 -5.551115123125783e-17 -4.007476928710937 -5.551115123125783e-17 Q -3.9669769287109373 -5.551115123125783e-17 -3.9362269287109375 0.01524999999999993 Q -3.905476928710937 0.030499999999999916 -3.887976928710937 0.061249999999999916 Q -3.8704769287109375 0.09199999999999992 -3.8689769287109375 0.13799999999999993 Q -3.867976928710937 0.15999999999999992 -3.867976928710937 0.1802499999999999 Q -3.867976928710937 0.20049999999999993 -3.8689769287109375 0.22249999999999992 Q -3.8704769287109375 0.2689999999999999 -3.887226928710937 0.2997499999999999 Q -3.903976928710937 0.3304999999999999 -3.934476928710937 0.34524999999999995 Q -3.964976928710937 0.35999999999999993 -4.007476928710937 0.35999999999999993 M -4.007476928710937 0.31749999999999995 Q -3.9694769287109373 0.31749999999999995 -3.9452269287109374 0.29449999999999993 Q -3.920976928710937 0.2714999999999999 -3.9189769287109373 0.21999999999999992 Q -3.9179769287109374 0.19749999999999993 -3.9179769287109374 0.1797499999999999 Q -3.9179769287109374 0.16199999999999992 -3.9189769287109373 0.13999999999999993 Q -3.919976928710937 0.10549999999999993 -3.9317269287109373 0.08399999999999991 Q -3.9434769287109375 0.062499999999999944 -3.9629769287109373 0.052499999999999936 Q -3.982476928710937 0.04249999999999993 -4.007476928710937 0.04249999999999993 Q -4.032476928710937 0.04249999999999993 -4.051976928710937 0.052499999999999936 Q -4.071476928710937 0.062499999999999944 -4.083226928710937 0.08399999999999991 Q -4.094976928710937 0.10549999999999993 -4.0964769287109375 0.13999999999999993 Q -4.096976928710937 0.16199999999999992 -4.096976928710937 0.1797499999999999 Q -4.096976928710937 0.19749999999999993 -4.0964769287109375 0.21999999999999992 Q -4.094476928710938 0.2714999999999999 -4.069976928710937 0.29449999999999993 Q -4.045476928710937 0.31749999999999995 -4.007476928710937 0.31749999999999995 M -3.7784759521484372 0.3549999999999999 Q -3.7839759521484373 0.3549999999999999 -3.7869759521484374 0.35174999999999995 Q -3.7899759521484375 0.3484999999999999 -3.7899759521484375 0.3434999999999999 L -3.7899759521484375 0.016999999999999904 Q -3.7899759521484375 0.0114999999999999 -3.7869759521484374 0.008249999999999924 Q -3.7839759521484373 0.004999999999999893 -3.7784759521484372 0.004999999999999893 L -3.6649759521484375 0.004999999999999893 Q -3.613475952148437 0.004999999999999893 -3.5819759521484373 0.020499999999999907 Q -3.5504759521484375 0.03599999999999992 -3.5359759521484375 0.06624999999999992 Q -3.5214759521484376 0.09649999999999992 -3.5209759521484374 0.14049999999999993 Q -3.5204759521484372 0.16299999999999992 -3.5204759521484372 0.1799999999999999 Q -3.5204759521484372 0.19699999999999993 -3.5209759521484374 0.21899999999999992 Q -3.5219759521484373 0.2649999999999999 -3.5362259521484374 0.2952499999999999 Q -3.5504759521484375 0.3254999999999999 -3.5812259521484373 0.34024999999999994 Q -3.6119759521484376 0.3549999999999999 -3.6624759521484376 0.3549999999999999 L -3.7784759521484372 0.3549999999999999 M -3.7409759521484376 0.31249999999999994 L -3.6649759521484375 0.31249999999999994 Q -3.6304759521484375 0.31249999999999994 -3.6099759521484374 0.30299999999999994 Q -3.5894759521484376 0.2934999999999999 -3.5802259521484374 0.2724999999999999 Q -3.570975952148437 0.25149999999999995 -3.5704759521484375 0.21699999999999992 Q -3.569475952148437 0.20199999999999993 -3.569475952148437 0.19074999999999992 Q -3.569475952148437 0.1794999999999999 -3.569475952148437 0.16824999999999993 Q -3.569475952148437 0.15699999999999992 -3.5704759521484375 0.14249999999999993 Q -3.5714759521484374 0.09399999999999992 -3.593475952148437 0.07074999999999992 Q -3.6154759521484374 0.04749999999999993 -3.6674759521484375 0.04749999999999993 L -3.7409759521484376 0.04749999999999993 L -3.7409759521484376 0.31249999999999994 M -3.3014654541015624 0.3549999999999999 Q -3.3069654541015625 0.3549999999999999 -3.3099654541015626 0.35174999999999995 Q -3.3129654541015627 0.3484999999999999 -3.3129654541015627 0.3434999999999999 L -3.3129654541015627 0.016999999999999904 Q -3.3129654541015627 0.0114999999999999 -3.3099654541015626 0.008249999999999924 Q -3.3069654541015625 0.004999999999999893 -3.3014654541015624 0.004999999999999893 L -3.275965454101563 0.004999999999999893 Q -3.2704654541015628 0.004999999999999893 -3.2672154541015628 0.008249999999999924 Q -3.263965454101563 0.0114999999999999 -3.263965454101563 0.016999999999999904 L -3.263965454101563 0.15499999999999992 L -3.0919654541015626 0.15499999999999992 L -3.0919654541015626 0.016999999999999904 Q -3.0919654541015626 0.0114999999999999 -3.0887154541015627 0.008249999999999924 Q -3.0854654541015627 0.004999999999999893 -3.080465454101563 0.004999999999999893 L -3.0549654541015627 0.004999999999999893 Q -3.0494654541015627 0.004999999999999893 -3.0462154541015627 0.008249999999999924 Q -3.0429654541015627 0.0114999999999999 -3.0429654541015627 0.016999999999999904 L -3.0429654541015627 0.3434999999999999 Q -3.0429654541015627 0.3484999999999999 -3.0462154541015627 0.35174999999999995 Q -3.0494654541015627 0.3549999999999999 -3.0549654541015627 0.3549999999999999 L -3.080465454101563 0.3549999999999999 Q -3.0854654541015627 0.3549999999999999 -3.0887154541015627 0.35174999999999995 Q -3.0919654541015626 0.3484999999999999 -3.0919654541015626 0.3434999999999999 L -3.0919654541015626 0.19999999999999993 L -3.263965454101563 0.19999999999999993 L -3.263965454101563 0.3434999999999999 Q -3.263965454101563 0.3484999999999999 -3.2672154541015628 0.35174999999999995 Q -3.2704654541015628 0.3549999999999999 -3.275965454101563 0.3549999999999999 L -3.3014654541015624 0.3549999999999999 M -2.9394708251953126 0.3549999999999999 Q -2.9449708251953126 0.3549999999999999 -2.9479708251953127 0.35174999999999995 Q -2.950970825195313 0.3484999999999999 -2.950970825195313 0.3434999999999999 L -2.950970825195313 0.016999999999999904 Q -2.950970825195313 0.0114999999999999 -2.9479708251953127 0.008249999999999924 Q -2.9449708251953126 0.004999999999999893 -2.9394708251953126 0.004999999999999893 L -2.732970825195313 0.004999999999999893 Q -2.727470825195313 0.004999999999999893 -2.7244708251953127 0.008249999999999924 Q -2.7214708251953126 0.0114999999999999 -2.7214708251953126 0.016999999999999904 L -2.7214708251953126 0.03599999999999992 Q -2.7214708251953126 0.041499999999999926 -2.7244708251953127 0.04449999999999993 Q -2.727470825195313 0.04749999999999993 -2.732970825195313 0.04749999999999993 L -2.902970825195313 0.04749999999999993 L -2.902970825195313 0.15699999999999992 L -2.7439708251953125 0.15699999999999992 Q -2.7384708251953125 0.15699999999999992 -2.735470825195313 0.16024999999999992 Q -2.7324708251953127 0.16349999999999992 -2.7324708251953127 0.16899999999999993 L -2.7324708251953127 0.18749999999999992 Q -2.7324708251953127 0.19249999999999992 -2.735470825195313 0.19574999999999992 Q -2.7384708251953125 0.19899999999999993 -2.7439708251953125 0.19899999999999993 L -2.902970825195313 0.19899999999999993 L -2.902970825195313 0.31249999999999994 L -2.728970825195313 0.31249999999999994 Q -2.723470825195313 0.31249999999999994 -2.7204708251953127 0.31549999999999995 Q -2.7174708251953126 0.31849999999999995 -2.7174708251953126 0.32399999999999995 L -2.7174708251953126 0.3434999999999999 Q -2.7174708251953126 0.3484999999999999 -2.7204708251953127 0.35174999999999995 Q -2.723470825195313 0.3549999999999999 -2.728970825195313 0.3549999999999999 L -2.9394708251953126 0.3549999999999999 M -2.666461791992188 0.3549999999999999 Q -2.670461791992188 0.3549999999999999 -2.673461791992188 0.3519999999999999 Q -2.676461791992188 0.3489999999999999 -2.676461791992188 0.3449999999999999 Q -2.676461791992188 0.3424999999999999 -2.675961791992188 0.3394999999999999 L -2.5519617919921878 0.015999999999999903 Q -2.549961791992188 0.010999999999999899 -2.5464617919921877 0.007999999999999896 Q -2.542961791992188 0.004999999999999893 -2.5359617919921877 0.004999999999999893 L -2.501961791992188 0.004999999999999893 Q -2.494961791992188 0.004999999999999893 -2.491461791992188 0.007999999999999896 Q -2.4879617919921877 0.010999999999999899 -2.485961791992188 0.015999999999999903 L -2.362461791992188 0.3394999999999999 Q -2.3614617919921876 0.3424999999999999 -2.3614617919921876 0.3449999999999999 Q -2.3614617919921876 0.3489999999999999 -2.3644617919921878 0.3519999999999999 Q -2.367461791992188 0.3549999999999999 -2.371461791992188 0.3549999999999999 L -2.396961791992188 0.3549999999999999 Q -2.4029617919921877 0.3549999999999999 -2.405711791992188 0.3519999999999999 Q -2.408461791992188 0.3489999999999999 -2.4094617919921877 0.3464999999999999 L -2.436961791992188 0.2754999999999999 L -2.6009617919921877 0.2754999999999999 L -2.628461791992188 0.3464999999999999 Q -2.6289617919921877 0.3489999999999999 -2.631961791992188 0.3519999999999999 Q -2.634961791992188 0.3549999999999999 -2.6409617919921877 0.3549999999999999 L -2.666461791992188 0.3549999999999999 M -2.5864617919921877 0.23249999999999993 L -2.451461791992188 0.23249999999999993 L -2.518961791992188 0.05499999999999994 L -2.5864617919921877 0.23249999999999993 M -2.2914703369140628 0.3549999999999999 Q -2.296970336914063 0.3549999999999999 -2.299970336914063 0.35174999999999995 Q -2.302970336914063 0.3484999999999999 -2.302970336914063 0.3434999999999999 L -2.302970336914063 0.016499999999999904 Q -2.302970336914063 0.0114999999999999 -2.299970336914063 0.008249999999999924 Q -2.296970336914063 0.004999999999999893 -2.2914703369140628 0.004999999999999893 L -2.264970336914063 0.004999999999999893 Q -2.259970336914063 0.004999999999999893 -2.256720336914063 0.008249999999999924 Q -2.253470336914063 0.0114999999999999 -2.253470336914063 0.016499999999999904 L -2.253470336914063 0.31149999999999994 L -2.087470336914063 0.31149999999999994 Q -2.081970336914063 0.31149999999999994 -2.078720336914063 0.3147499999999999 Q -2.075470336914063 0.31799999999999995 -2.075470336914063 0.3234999999999999 L -2.075470336914063 0.3434999999999999 Q -2.075470336914063 0.3484999999999999 -2.078720336914063 0.35174999999999995 Q -2.081970336914063 0.3549999999999999 -2.087470336914063 0.3549999999999999 L -2.2914703369140628 0.3549999999999999 M -1.987985473632813 0.3549999999999999 Q -1.992985473632813 0.3549999999999999 -1.996235473632813 0.35174999999999995 Q -1.999485473632813 0.3484999999999999 -1.999485473632813 0.3434999999999999 L -1.999485473632813 0.04949999999999993 L -2.095485473632813 0.04949999999999993 Q -2.100485473632813 0.04949999999999993 -2.103735473632813 0.0462499999999999 Q -2.106985473632813 0.04299999999999993 -2.106985473632813 0.03799999999999992 L -2.106985473632813 0.016999999999999904 Q -2.106985473632813 0.0114999999999999 -2.103735473632813 0.008249999999999924 Q -2.100485473632813 0.004999999999999893 -2.095485473632813 0.004999999999999893 L -1.854485473632813 0.004999999999999893 Q -1.848985473632813 0.004999999999999893 -1.845735473632813 0.008249999999999924 Q -1.842485473632813 0.0114999999999999 -1.842485473632813 0.016999999999999904 L -1.842485473632813 0.03799999999999992 Q -1.842485473632813 0.04299999999999993 -1.845735473632813 0.0462499999999999 Q -1.848985473632813 0.04949999999999993 -1.854485473632813 0.04949999999999993 L -1.949985473632813 0.04949999999999993 L -1.949985473632813 0.3434999999999999 Q -1.949985473632813 0.3484999999999999 -1.953235473632813 0.35174999999999995 Q -1.956485473632813 0.3549999999999999 -1.961985473632813 0.3549999999999999 L -1.987985473632813 0.3549999999999999 M -1.7699957275390632 0.3549999999999999 Q -1.775495727539063 0.3549999999999999 -1.7784957275390632 0.35174999999999995 Q -1.781495727539063 0.3484999999999999 -1.781495727539063 0.3434999999999999 L -1.781495727539063 0.016999999999999904 Q -1.781495727539063 0.0114999999999999 -1.7784957275390632 0.008249999999999924 Q -1.775495727539063 0.004999999999999893 -1.7699957275390632 0.004999999999999893 L -1.7444957275390631 0.004999999999999893 Q -1.738995727539063 0.004999999999999893 -1.735745727539063 0.008249999999999924 Q -1.7324957275390631 0.0114999999999999 -1.7324957275390631 0.016999999999999904 L -1.7324957275390631 0.15499999999999992 L -1.5604957275390632 0.15499999999999992 L -1.5604957275390632 0.016999999999999904 Q -1.5604957275390632 0.0114999999999999 -1.5572457275390632 0.008249999999999924 Q -1.5539957275390632 0.004999999999999893 -1.5489957275390631 0.004999999999999893 L -1.5234957275390633 0.004999999999999893 Q -1.5179957275390632 0.004999999999999893 -1.5147457275390632 0.008249999999999924 Q -1.5114957275390632 0.0114999999999999 -1.5114957275390632 0.016999999999999904 L -1.5114957275390632 0.3434999999999999 Q -1.5114957275390632 0.3484999999999999 -1.5147457275390632 0.35174999999999995 Q -1.5179957275390632 0.3549999999999999 -1.5234957275390633 0.3549999999999999 L -1.5489957275390631 0.3549999999999999 Q -1.5539957275390632 0.3549999999999999 -1.5572457275390632 0.35174999999999995 Q -1.5604957275390632 0.3484999999999999 -1.5604957275390632 0.3434999999999999 L -1.5604957275390632 0.19999999999999993 L -1.7324957275390631 0.19999999999999993 L -1.7324957275390631 0.3434999999999999 Q -1.7324957275390631 0.3484999999999999 -1.735745727539063 0.35174999999999995 Q -1.738995727539063 0.3549999999999999 -1.7444957275390631 0.3549999999999999 L -1.7699957275390632 0.3549999999999999 M -1.2805035400390634 0.3549999999999999 Q -1.2860035400390633 0.3549999999999999 -1.2890035400390634 0.35174999999999995 Q -1.2920035400390633 0.3484999999999999 -1.2920035400390633 0.3434999999999999 L -1.2920035400390633 0.016499999999999904 Q -1.2920035400390633 0.0114999999999999 -1.2890035400390634 0.008249999999999924 Q -1.2860035400390633 0.004999999999999893 -1.2805035400390634 0.004999999999999893 L -1.2540035400390634 0.004999999999999893 Q -1.2485035400390634 0.004999999999999893 -1.2455035400390633 0.008249999999999924 Q -1.2425035400390634 0.0114999999999999 -1.2425035400390634 0.016499999999999904 L -1.2425035400390634 0.3434999999999999 Q -1.2425035400390634 0.3484999999999999 -1.2455035400390633 0.35174999999999995 Q -1.2485035400390634 0.3549999999999999 -1.2540035400390634 0.3549999999999999 L -1.2805035400390634 0.3549999999999999 M -1.0379984130859385 0.35999999999999993 Q -1.0814984130859384 0.35999999999999993 -1.1109984130859385 0.3464999999999999 Q -1.1404984130859384 0.3329999999999999 -1.1562484130859385 0.3117499999999999 Q -1.1719984130859384 0.2904999999999999 -1.1729984130859386 0.2669999999999999 Q -1.1729984130859386 0.2629999999999999 -1.1697484130859384 0.2597499999999999 Q -1.1664984130859384 0.25649999999999995 -1.1619984130859384 0.25649999999999995 L -1.1364984130859384 0.25649999999999995 Q -1.1304984130859386 0.25649999999999995 -1.1274984130859385 0.25949999999999995 Q -1.1244984130859383 0.26249999999999996 -1.1234984130859385 0.26649999999999996 Q -1.1204984130859386 0.2784999999999999 -1.1109984130859385 0.2902499999999999 Q -1.1014984130859384 0.30199999999999994 -1.0837484130859385 0.3097499999999999 Q -1.0659984130859383 0.31749999999999995 -1.0379984130859385 0.31749999999999995 Q -0.9949984130859384 0.31749999999999995 -0.9747484130859385 0.3022499999999999 Q -0.9544984130859384 0.2869999999999999 -0.9544984130859384 0.26149999999999995 Q -0.9544984130859384 0.24399999999999994 -0.9652484130859385 0.23324999999999993 Q -0.9759984130859385 0.22249999999999992 -0.9979984130859385 0.2139999999999999 Q -1.0199984130859385 0.20549999999999993 -1.0549984130859384 0.19549999999999992 Q -1.0914984130859384 0.18499999999999991 -1.1154984130859384 0.17249999999999993 Q -1.1394984130859385 0.15999999999999992 -1.1512484130859384 0.14149999999999993 Q -1.1629984130859385 0.12299999999999991 -1.1629984130859385 0.09449999999999992 Q -1.1629984130859385 0.0674999999999999 -1.1484984130859384 0.0462499999999999 Q -1.1339984130859384 0.02499999999999991 -1.1064984130859385 0.0124999999999999 Q -1.0789984130859385 -5.551115123125783e-17 -1.0404984130859385 -5.551115123125783e-17 Q -1.0094984130859386 -5.551115123125783e-17 -0.9862484130859385 0.008249999999999924 Q -0.9629984130859385 0.016499999999999904 -0.9474984130859385 0.030249999999999944 Q -0.9319984130859384 0.04399999999999993 -0.9239984130859384 0.059749999999999914 Q -0.9159984130859384 0.0754999999999999 -0.9154984130859385 0.09049999999999991 Q -0.9154984130859385 0.09399999999999992 -0.9179984130859384 0.09724999999999995 Q -0.9204984130859384 0.10049999999999992 -0.9259984130859384 0.10049999999999992 L -0.9524984130859384 0.10049999999999992 Q -0.9559984130859385 0.10049999999999992 -0.9597484130859384 0.09849999999999992 Q -0.9634984130859384 0.09649999999999992 -0.9654984130859384 0.09099999999999991 Q -0.9684984130859384 0.0704999999999999 -0.9884984130859384 0.05649999999999994 Q -1.0084984130859385 0.04249999999999993 -1.0404984130859385 0.04249999999999993 Q -1.0729984130859385 0.04249999999999993 -1.0932484130859383 0.05499999999999994 Q -1.1134984130859384 0.0674999999999999 -1.1134984130859384 0.09399999999999992 Q -1.1134984130859384 0.11099999999999993 -1.1039984130859384 0.12224999999999991 Q -1.0944984130859385 0.13349999999999992 -1.0739984130859384 0.14199999999999993 Q -1.0534984130859384 0.1504999999999999 -1.0204984130859385 0.15999999999999992 Q -0.9804984130859384 0.17099999999999993 -0.9549984130859385 0.1832499999999999 Q -0.9294984130859385 0.19549999999999992 -0.9172484130859384 0.2137499999999999 Q -0.9049984130859385 0.23199999999999993 -0.9049984130859385 0.26049999999999995 Q -0.9049984130859385 0.2919999999999999 -0.9214984130859385 0.3142499999999999 Q -0.9379984130859385 0.3364999999999999 -0.9677484130859384 0.34824999999999995 Q -0.9974984130859385 0.35999999999999993 -1.0379984130859385 0.35999999999999993 M -0.6315084228515635 0.3549999999999999 Q -0.6365084228515634 0.3549999999999999 -0.6397584228515635 0.35174999999999995 Q -0.6430084228515635 0.3484999999999999 -0.6430084228515635 0.3434999999999999 L -0.6430084228515635 0.04949999999999993 L -0.7390084228515634 0.04949999999999993 Q -0.7440084228515634 0.04949999999999993 -0.7472584228515634 0.0462499999999999 Q -0.7505084228515635 0.04299999999999993 -0.7505084228515635 0.03799999999999992 L -0.7505084228515635 0.016999999999999904 Q -0.7505084228515635 0.0114999999999999 -0.7472584228515634 0.008249999999999924 Q -0.7440084228515634 0.004999999999999893 -0.7390084228515634 0.004999999999999893 L -0.49800842285156344 0.004999999999999893 Q -0.49250842285156343 0.004999999999999893 -0.48925842285156346 0.008249999999999924 Q -0.4860084228515634 0.0114999999999999 -0.4860084228515634 0.016999999999999904 L -0.4860084228515634 0.03799999999999992 Q -0.4860084228515634 0.04299999999999993 -0.48925842285156346 0.0462499999999999 Q -0.49250842285156343 0.04949999999999993 -0.49800842285156344 0.04949999999999993 L -0.5935084228515635 0.04949999999999993 L -0.5935084228515635 0.3434999999999999 Q -0.5935084228515635 0.3484999999999999 -0.5967584228515634 0.35174999999999995 Q -0.6000084228515634 0.3549999999999999 -0.6055084228515635 0.3549999999999999 L -0.6315084228515635 0.3549999999999999 M -0.41351867675781345 0.3549999999999999 Q -0.41901867675781346 0.3549999999999999 -0.42201867675781346 0.35174999999999995 Q -0.42501867675781346 0.3484999999999999 -0.42501867675781346 0.3434999999999999 L -0.42501867675781346 0.016999999999999904 Q -0.42501867675781346 0.0114999999999999 -0.42201867675781346 0.008249999999999924 Q -0.41901867675781346 0.004999999999999893 -0.41351867675781345 0.004999999999999893 L -0.38801867675781343 0.004999999999999893 Q -0.3825186767578134 0.004999999999999893 -0.37926867675781345 0.008249999999999924 Q -0.3760186767578134 0.0114999999999999 -0.3760186767578134 0.016999999999999904 L -0.3760186767578134 0.15499999999999992 L -0.20401867675781343 0.15499999999999992 L -0.20401867675781343 0.016999999999999904 Q -0.20401867675781343 0.0114999999999999 -0.20076867675781346 0.008249999999999924 Q -0.19751867675781343 0.004999999999999893 -0.19251867675781342 0.004999999999999893 L -0.16701867675781346 0.004999999999999893 Q -0.16151867675781345 0.004999999999999893 -0.15826867675781342 0.008249999999999924 Q -0.15501867675781345 0.0114999999999999 -0.15501867675781345 0.016999999999999904 L -0.15501867675781345 0.3434999999999999 Q -0.15501867675781345 0.3484999999999999 -0.15826867675781342 0.35174999999999995 Q -0.16151867675781345 0.3549999999999999 -0.16701867675781346 0.3549999999999999 L -0.19251867675781342 0.3549999999999999 Q -0.19751867675781343 0.3549999999999999 -0.20076867675781346 0.35174999999999995 Q -0.20401867675781343 0.3484999999999999 -0.20401867675781343 0.3434999999999999 L -0.20401867675781343 0.19999999999999993 L -0.3760186767578134 0.19999999999999993 L -0.3760186767578134 0.3434999999999999 Q -0.3760186767578134 0.3484999999999999 -0.37926867675781345 0.35174999999999995 Q -0.3825186767578134 0.3549999999999999 -0.38801867675781343 0.3549999999999999 L -0.41351867675781345 0.3549999999999999 M -0.05152404785156344 0.3549999999999999 Q -0.05702404785156344 0.3549999999999999 -0.06002404785156344 0.35174999999999995 Q -0.06302404785156343 0.3484999999999999 -0.06302404785156343 0.3434999999999999 L -0.06302404785156343 0.016999999999999904 Q -0.06302404785156343 0.0114999999999999 -0.06002404785156344 0.008249999999999924 Q -0.05702404785156344 0.004999999999999893 -0.05152404785156344 0.004999999999999893 L 0.15497595214843657 0.004999999999999893 Q 0.16047595214843657 0.004999999999999893 0.16347595214843658 0.008249999999999924 Q 0.16647595214843658 0.0114999999999999 0.16647595214843658 0.016999999999999904 L 0.16647595214843658 0.03599999999999992 Q 0.16647595214843658 0.041499999999999926 0.16347595214843658 0.04449999999999993 Q 0.16047595214843657 0.04749999999999993 0.15497595214843657 0.04749999999999993 L -0.015024047851563443 0.04749999999999993 L -0.015024047851563443 0.15699999999999992 L 0.14397595214843656 0.15699999999999992 Q 0.14947595214843656 0.15699999999999992 0.15247595214843657 0.16024999999999992 Q 0.15547595214843657 0.16349999999999992 0.15547595214843657 0.16899999999999993 L 0.15547595214843657 0.18749999999999992 Q 0.15547595214843657 0.19249999999999992 0.15247595214843657 0.19574999999999992 Q 0.14947595214843656 0.19899999999999993 0.14397595214843656 0.19899999999999993 L -0.015024047851563443 0.19899999999999993 L -0.015024047851563443 0.31249999999999994 L 0.15897595214843657 0.31249999999999994 Q 0.16447595214843658 0.31249999999999994 0.16747595214843658 0.31549999999999995 Q 0.17047595214843658 0.31849999999999995 0.17047595214843658 0.32399999999999995 L 0.17047595214843658 0.3434999999999999 Q 0.17047595214843658 0.3484999999999999 0.16747595214843658 0.35174999999999995 Q 0.16447595214843658 0.3549999999999999 0.15897595214843657 0.3549999999999999 L -0.05152404785156344 0.3549999999999999 M 0.4999825439453116 0.35999999999999993 Q 0.45548254394531157 0.35999999999999993 0.42473254394531157 0.3434999999999999 Q 0.39398254394531157 0.3269999999999999 0.3777325439453116 0.29699999999999993 Q 0.36148254394531154 0.2669999999999999 0.35948254394531154 0.22649999999999992 Q 0.3589825439453116 0.20449999999999993 0.3589825439453116 0.1797499999999999 Q 0.3589825439453116 0.15499999999999992 0.35948254394531154 0.13249999999999992 Q 0.36148254394531154 0.09199999999999992 0.3777325439453116 0.062249999999999917 Q 0.39398254394531157 0.03249999999999992 0.42498254394531154 0.01624999999999993 Q 0.45598254394531157 -5.551115123125783e-17 0.4999825439453116 -5.551115123125783e-17 Q 0.5349825439453115 -5.551115123125783e-17 0.5609825439453116 0.009999999999999898 Q 0.5869825439453116 0.019999999999999907 0.6037325439453116 0.03524999999999989 Q 0.6204825439453115 0.050499999999999934 0.6287325439453115 0.06699999999999989 Q 0.6369825439453116 0.08349999999999991 0.6374825439453116 0.09599999999999992 Q 0.6379825439453115 0.10049999999999992 0.6349825439453116 0.1032499999999999 Q 0.6319825439453115 0.10599999999999993 0.6269825439453116 0.10599999999999993 L 0.5974825439453115 0.10599999999999993 Q 0.5924825439453116 0.10599999999999993 0.5902325439453115 0.10399999999999993 Q 0.5879825439453116 0.10199999999999992 0.5859825439453116 0.09699999999999992 Q 0.5814825439453115 0.08399999999999991 0.5712325439453115 0.0714999999999999 Q 0.5609825439453116 0.05899999999999994 0.5437325439453116 0.050749999999999906 Q 0.5264825439453116 0.04249999999999993 0.4999825439453116 0.04249999999999993 Q 0.4599825439453116 0.04249999999999993 0.4357325439453116 0.06399999999999995 Q 0.4114825439453116 0.08549999999999991 0.4094825439453116 0.13499999999999993 Q 0.4079825439453116 0.1794999999999999 0.4094825439453116 0.22399999999999992 Q 0.4114825439453116 0.2739999999999999 0.43598254394531155 0.2957499999999999 Q 0.4604825439453116 0.31749999999999995 0.4999825439453116 0.31749999999999995 Q 0.5264825439453116 0.31749999999999995 0.5472325439453116 0.30749999999999994 Q 0.5679825439453116 0.29749999999999993 0.5799825439453116 0.27724999999999994 Q 0.5919825439453116 0.2569999999999999 0.5919825439453116 0.22549999999999992 L 0.5919825439453116 0.20449999999999993 L 0.5169825439453115 0.20449999999999993 Q 0.5119825439453116 0.20449999999999993 0.5087325439453115 0.20124999999999993 Q 0.5054825439453116 0.19799999999999993 0.5054825439453116 0.19249999999999992 L 0.5054825439453116 0.17649999999999993 Q 0.5054825439453116 0.17099999999999993 0.5087325439453115 0.16774999999999993 Q 0.5119825439453116 0.16449999999999992 0.5169825439453115 0.16449999999999992 L 0.6299825439453115 0.16449999999999992 Q 0.6354825439453116 0.16449999999999992 0.6384825439453116 0.16774999999999993 Q 0.6414825439453116 0.17099999999999993 0.6414825439453116 0.17649999999999993 L 0.6414825439453116 0.22449999999999992 Q 0.6414825439453116 0.26549999999999996 0.6247325439453115 0.29599999999999993 Q 0.6079825439453116 0.3264999999999999 0.5759825439453116 0.34324999999999994 Q 0.5439825439453115 0.35999999999999993 0.4999825439453116 0.35999999999999993 M 0.7294671630859366 0.3549999999999999 Q 0.7239671630859366 0.3549999999999999 0.7209671630859366 0.35174999999999995 Q 0.7179671630859366 0.3484999999999999 0.7179671630859366 0.3434999999999999 L 0.7179671630859366 0.016999999999999904 Q 0.7179671630859366 0.0114999999999999 0.7209671630859366 0.008249999999999924 Q 0.7239671630859366 0.004999999999999893 0.7294671630859366 0.004999999999999893 L 0.8514671630859365 0.004999999999999893 Q 0.9079671630859366 0.004999999999999893 0.9409671630859366 0.03149999999999992 Q 0.9739671630859366 0.05799999999999994 0.9739671630859366 0.10999999999999993 Q 0.9739671630859366 0.1484999999999999 0.9547171630859366 0.17274999999999993 Q 0.9354671630859366 0.19699999999999993 0.9024671630859366 0.20649999999999993 L 0.9794671630859366 0.3394999999999999 Q 0.9809671630859366 0.3424999999999999 0.9809671630859366 0.3449999999999999 Q 0.9809671630859366 0.3489999999999999 0.9777171630859366 0.3519999999999999 Q 0.9744671630859365 0.3549999999999999 0.9704671630859365 0.3549999999999999 L 0.9464671630859366 0.3549999999999999 Q 0.9379671630859365 0.3549999999999999 0.9339671630859365 0.3504999999999999 Q 0.9299671630859365 0.3459999999999999 0.9269671630859366 0.3414999999999999 L 0.8544671630859366 0.2144999999999999 L 0.7669671630859366 0.2144999999999999 L 0.7669671630859366 0.3434999999999999 Q 0.7669671630859366 0.3484999999999999 0.7637171630859365 0.35174999999999995 Q 0.7604671630859365 0.3549999999999999 0.7549671630859366 0.3549999999999999 L 0.7294671630859366 0.3549999999999999 M 0.7669671630859366 0.17199999999999993 L 0.8494671630859366 0.17199999999999993 Q 0.8869671630859366 0.17199999999999993 0.9054671630859366 0.15624999999999992 Q 0.9239671630859365 0.14049999999999993 0.9239671630859365 0.10949999999999993 Q 0.9239671630859365 0.0789999999999999 0.9057171630859366 0.06299999999999994 Q 0.8874671630859365 0.04699999999999993 0.8494671630859366 0.04699999999999993 L 0.7669671630859366 0.04699999999999993 L 0.7669671630859366 0.17199999999999993 M 1.0619818115234365 0.3549999999999999 Q 1.0564818115234367 0.3549999999999999 1.0534818115234366 0.35174999999999995 Q 1.0504818115234367 0.3484999999999999 1.0504818115234367 0.3434999999999999 L 1.0504818115234367 0.016999999999999904 Q 1.0504818115234367 0.0114999999999999 1.0534818115234366 0.008249999999999924 Q 1.0564818115234367 0.004999999999999893 1.0619818115234365 0.004999999999999893 L 1.2684818115234366 0.004999999999999893 Q 1.2739818115234365 0.004999999999999893 1.2769818115234366 0.008249999999999924 Q 1.2799818115234367 0.0114999999999999 1.2799818115234367 0.016999999999999904 L 1.2799818115234367 0.03599999999999992 Q 1.2799818115234367 0.041499999999999926 1.2769818115234366 0.04449999999999993 Q 1.2739818115234365 0.04749999999999993 1.2684818115234366 0.04749999999999993 L 1.0984818115234365 0.04749999999999993 L 1.0984818115234365 0.15699999999999992 L 1.2574818115234365 0.15699999999999992 Q 1.2629818115234366 0.15699999999999992 1.2659818115234365 0.16024999999999992 Q 1.2689818115234366 0.16349999999999992 1.2689818115234366 0.16899999999999993 L 1.2689818115234366 0.18749999999999992 Q 1.2689818115234366 0.19249999999999992 1.2659818115234365 0.19574999999999992 Q 1.2629818115234366 0.19899999999999993 1.2574818115234365 0.19899999999999993 L 1.0984818115234365 0.19899999999999993 L 1.0984818115234365 0.31249999999999994 L 1.2724818115234366 0.31249999999999994 Q 1.2779818115234365 0.31249999999999994 1.2809818115234366 0.31549999999999995 Q 1.2839818115234367 0.31849999999999995 1.2839818115234367 0.32399999999999995 L 1.2839818115234367 0.3434999999999999 Q 1.2839818115234367 0.3484999999999999 1.2809818115234366 0.35174999999999995 Q 1.2779818115234365 0.3549999999999999 1.2724818115234366 0.3549999999999999 L 1.0619818115234365 0.3549999999999999 M 1.3349908447265615 0.3549999999999999 Q 1.3309908447265615 0.3549999999999999 1.3279908447265614 0.3519999999999999 Q 1.3249908447265615 0.3489999999999999 1.3249908447265615 0.3449999999999999 Q 1.3249908447265615 0.3424999999999999 1.3254908447265614 0.3394999999999999 L 1.4494908447265615 0.015999999999999903 Q 1.4514908447265615 0.010999999999999899 1.4549908447265616 0.007999999999999896 Q 1.4584908447265614 0.004999999999999893 1.4654908447265615 0.004999999999999893 L 1.4994908447265614 0.004999999999999893 Q 1.5064908447265615 0.004999999999999893 1.5099908447265615 0.007999999999999896 Q 1.5134908447265616 0.010999999999999899 1.5154908447265614 0.015999999999999903 L 1.6389908447265615 0.3394999999999999 Q 1.6399908447265614 0.3424999999999999 1.6399908447265614 0.3449999999999999 Q 1.6399908447265614 0.3489999999999999 1.6369908447265615 0.3519999999999999 Q 1.6339908447265614 0.3549999999999999 1.6299908447265614 0.3549999999999999 L 1.6044908447265613 0.3549999999999999 Q 1.5984908447265616 0.3549999999999999 1.5957408447265615 0.3519999999999999 Q 1.5929908447265615 0.3489999999999999 1.5919908447265616 0.3464999999999999 L 1.5644908447265615 0.2754999999999999 L 1.4004908447265614 0.2754999999999999 L 1.3729908447265615 0.3464999999999999 Q 1.3724908447265616 0.3489999999999999 1.3694908447265615 0.3519999999999999 Q 1.3664908447265616 0.3549999999999999 1.3604908447265616 0.3549999999999999 L 1.3349908447265615 0.3549999999999999 M 1.4149908447265616 0.23249999999999993 L 1.5499908447265616 0.23249999999999993 L 1.4824908447265615 0.05499999999999994 L 1.4149908447265616 0.23249999999999993 M 1.7494949951171863 0.3549999999999999 Q 1.7444949951171864 0.3549999999999999 1.7412449951171864 0.35174999999999995 Q 1.7379949951171865 0.3484999999999999 1.7379949951171865 0.3434999999999999 L 1.7379949951171865 0.04949999999999993 L 1.6419949951171864 0.04949999999999993 Q 1.6369949951171863 0.04949999999999993 1.6337449951171863 0.0462499999999999 Q 1.6304949951171863 0.04299999999999993 1.6304949951171863 0.03799999999999992 L 1.6304949951171863 0.016999999999999904 Q 1.6304949951171863 0.0114999999999999 1.6337449951171863 0.008249999999999924 Q 1.6369949951171863 0.004999999999999893 1.6419949951171864 0.004999999999999893 L 1.8829949951171865 0.004999999999999893 Q 1.8884949951171863 0.004999999999999893 1.8917449951171863 0.008249999999999924 Q 1.8949949951171865 0.0114999999999999 1.8949949951171865 0.016999999999999904 L 1.8949949951171865 0.03799999999999992 Q 1.8949949951171865 0.04299999999999993 1.8917449951171863 0.0462499999999999 Q 1.8884949951171863 0.04949999999999993 1.8829949951171865 0.04949999999999993 L 1.7874949951171863 0.04949999999999993 L 1.7874949951171863 0.3434999999999999 Q 1.7874949951171863 0.3484999999999999 1.7842449951171864 0.35174999999999995 Q 1.7809949951171864 0.3549999999999999 1.7754949951171863 0.3549999999999999 L 1.7494949951171863 0.3549999999999999 M 1.9674847412109362 0.3549999999999999 Q 1.9619847412109364 0.3549999999999999 1.9589847412109362 0.35174999999999995 Q 1.9559847412109364 0.3484999999999999 1.9559847412109364 0.3434999999999999 L 1.9559847412109364 0.016999999999999904 Q 1.9559847412109364 0.0114999999999999 1.9589847412109362 0.008249999999999924 Q 1.9619847412109364 0.004999999999999893 1.9674847412109362 0.004999999999999893 L 2.173984741210936 0.004999999999999893 Q 2.179484741210936 0.004999999999999893 2.1824847412109363 0.008249999999999924 Q 2.1854847412109364 0.0114999999999999 2.1854847412109364 0.016999999999999904 L 2.1854847412109364 0.03599999999999992 Q 2.1854847412109364 0.041499999999999926 2.1824847412109363 0.04449999999999993 Q 2.179484741210936 0.04749999999999993 2.173984741210936 0.04749999999999993 L 2.003984741210936 0.04749999999999993 L 2.003984741210936 0.15699999999999992 L 2.1629847412109364 0.15699999999999992 Q 2.1684847412109365 0.15699999999999992 2.171484741210936 0.16024999999999992 Q 2.1744847412109363 0.16349999999999992 2.1744847412109363 0.16899999999999993 L 2.1744847412109363 0.18749999999999992 Q 2.1744847412109363 0.19249999999999992 2.171484741210936 0.19574999999999992 Q 2.1684847412109365 0.19899999999999993 2.1629847412109364 0.19899999999999993 L 2.003984741210936 0.19899999999999993 L 2.003984741210936 0.31249999999999994 L 2.177984741210936 0.31249999999999994 Q 2.183484741210936 0.31249999999999994 2.1864847412109363 0.31549999999999995 Q 2.1894847412109364 0.31849999999999995 2.1894847412109364 0.32399999999999995 L 2.1894847412109364 0.3434999999999999 Q 2.1894847412109364 0.3484999999999999 2.1864847412109363 0.35174999999999995 Q 2.183484741210936 0.3549999999999999 2.177984741210936 0.3549999999999999 L 1.9674847412109362 0.3549999999999999 M 2.3764937744140613 0.35999999999999993 Q 2.332993774414061 0.35999999999999993 2.3034937744140613 0.3464999999999999 Q 2.2739937744140613 0.3329999999999999 2.258243774414061 0.3117499999999999 Q 2.242493774414061 0.2904999999999999 2.241493774414061 0.2669999999999999 Q 2.241493774414061 0.2629999999999999 2.244743774414061 0.2597499999999999 Q 2.247993774414061 0.25649999999999995 2.252493774414061 0.25649999999999995 L 2.2779937744140613 0.25649999999999995 Q 2.283993774414061 0.25649999999999995 2.286993774414061 0.25949999999999995 Q 2.2899937744140613 0.26249999999999996 2.290993774414061 0.26649999999999996 Q 2.2939937744140613 0.2784999999999999 2.3034937744140613 0.2902499999999999 Q 2.312993774414061 0.30199999999999994 2.3307437744140613 0.3097499999999999 Q 2.3484937744140613 0.31749999999999995 2.3764937744140613 0.31749999999999995 Q 2.419493774414061 0.31749999999999995 2.4397437744140613 0.3022499999999999 Q 2.459993774414061 0.2869999999999999 2.459993774414061 0.26149999999999995 Q 2.459993774414061 0.24399999999999994 2.449243774414061 0.23324999999999993 Q 2.438493774414061 0.22249999999999992 2.4164937744140613 0.2139999999999999 Q 2.394493774414061 0.20549999999999993 2.3594937744140614 0.19549999999999992 Q 2.322993774414061 0.18499999999999991 2.298993774414061 0.17249999999999993 Q 2.274993774414061 0.15999999999999992 2.263243774414061 0.14149999999999993 Q 2.2514937744140613 0.12299999999999991 2.2514937744140613 0.09449999999999992 Q 2.2514937744140613 0.0674999999999999 2.2659937744140612 0.0462499999999999 Q 2.280493774414061 0.02499999999999991 2.307993774414061 0.0124999999999999 Q 2.3354937744140614 -5.551115123125783e-17 2.3739937744140613 -5.551115123125783e-17 Q 2.404993774414061 -5.551115123125783e-17 2.428243774414061 0.008249999999999924 Q 2.451493774414061 0.016499999999999904 2.4669937744140613 0.030249999999999944 Q 2.482493774414061 0.04399999999999993 2.490493774414061 0.059749999999999914 Q 2.498493774414061 0.0754999999999999 2.4989937744140613 0.09049999999999991 Q 2.4989937744140613 0.09399999999999992 2.496493774414061 0.09724999999999995 Q 2.493993774414061 0.10049999999999992 2.488493774414061 0.10049999999999992 L 2.461993774414061 0.10049999999999992 Q 2.458493774414061 0.10049999999999992 2.454743774414061 0.09849999999999992 Q 2.4509937744140613 0.09649999999999992 2.448993774414061 0.09099999999999991 Q 2.445993774414061 0.0704999999999999 2.425993774414061 0.05649999999999994 Q 2.4059937744140614 0.04249999999999993 2.3739937744140613 0.04249999999999993 Q 2.341493774414061 0.04249999999999993 2.3212437744140613 0.05499999999999994 Q 2.300993774414061 0.0674999999999999 2.300993774414061 0.09399999999999992 Q 2.300993774414061 0.11099999999999993 2.310493774414061 0.12224999999999991 Q 2.319993774414061 0.13349999999999992 2.3404937744140613 0.14199999999999993 Q 2.360993774414061 0.1504999999999999 2.3939937744140614 0.15999999999999992 Q 2.433993774414061 0.17099999999999993 2.459493774414061 0.1832499999999999 Q 2.484993774414061 0.19549999999999992 2.497243774414061 0.2137499999999999 Q 2.5094937744140613 0.23199999999999993 2.5094937744140613 0.26049999999999995 Q 2.5094937744140613 0.2919999999999999 2.492993774414061 0.3142499999999999 Q 2.4764937744140614 0.3364999999999999 2.446743774414061 0.34824999999999995 Q 2.416993774414061 0.35999999999999993 2.3764937744140613 0.35999999999999993 M 2.664000610351561 0.3549999999999999 Q 2.659000610351561 0.3549999999999999 2.655750610351561 0.35174999999999995 Q 2.652500610351561 0.3484999999999999 2.652500610351561 0.3434999999999999 L 2.652500610351561 0.04949999999999993 L 2.556500610351561 0.04949999999999993 Q 2.551500610351561 0.04949999999999993 2.548250610351561 0.0462499999999999 Q 2.545000610351561 0.04299999999999993 2.545000610351561 0.03799999999999992 L 2.545000610351561 0.016999999999999904 Q 2.545000610351561 0.0114999999999999 2.548250610351561 0.008249999999999924 Q 2.551500610351561 0.004999999999999893 2.556500610351561 0.004999999999999893 L 2.797500610351561 0.004999999999999893 Q 2.8030006103515612 0.004999999999999893 2.806250610351561 0.008249999999999924 Q 2.809500610351561 0.0114999999999999 2.809500610351561 0.016999999999999904 L 2.809500610351561 0.03799999999999992 Q 2.809500610351561 0.04299999999999993 2.806250610351561 0.0462499999999999 Q 2.8030006103515612 0.04949999999999993 2.797500610351561 0.04949999999999993 L 2.7020006103515612 0.04949999999999993 L 2.7020006103515612 0.3434999999999999 Q 2.7020006103515612 0.3484999999999999 2.698750610351561 0.35174999999999995 Q 2.695500610351561 0.3549999999999999 2.6900006103515612 0.3549999999999999 L 2.664000610351561 0.3549999999999999 M 3.036480102539061 0.3549999999999999 Q 3.029980102539061 0.3549999999999999 3.0262301025390608 0.3514999999999999 Q 3.0224801025390606 0.3479999999999999 3.020980102539061 0.3414999999999999 L 2.956480102539061 0.020499999999999907 Q 2.9559801025390606 0.018499999999999905 2.9559801025390606 0.016999999999999904 Q 2.9559801025390606 0.015499999999999903 2.9559801025390606 0.014999999999999902 Q 2.9559801025390606 0.010999999999999899 2.9589801025390607 0.007999999999999896 Q 2.961980102539061 0.004999999999999893 2.965980102539061 0.004999999999999893 L 2.9919801025390607 0.004999999999999893 Q 3.002480102539061 0.004999999999999893 3.0039801025390607 0.013499999999999901 L 3.054980102539061 0.2714999999999999 L 3.1089801025390607 0.09449999999999992 Q 3.1104801025390607 0.08999999999999991 3.114230102539061 0.08624999999999994 Q 3.117980102539061 0.0824999999999999 3.1249801025390607 0.0824999999999999 L 3.1434801025390606 0.0824999999999999 Q 3.150980102539061 0.0824999999999999 3.1544801025390607 0.08624999999999994 Q 3.157980102539061 0.08999999999999991 3.158980102539061 0.09449999999999992 L 3.213480102539061 0.2714999999999999 L 3.263980102539061 0.013499999999999901 Q 3.265480102539061 0.004999999999999893 3.276480102539061 0.004999999999999893 L 3.302480102539061 0.004999999999999893 Q 3.306480102539061 0.004999999999999893 3.309480102539061 0.007999999999999896 Q 3.3124801025390607 0.010999999999999899 3.3124801025390607 0.014999999999999902 Q 3.3124801025390607 0.015499999999999903 3.312230102539061 0.016999999999999904 Q 3.311980102539061 0.018499999999999905 3.311980102539061 0.020499999999999907 L 3.2474801025390607 0.3414999999999999 Q 3.2459801025390607 0.3479999999999999 3.242230102539061 0.3514999999999999 Q 3.238480102539061 0.3549999999999999 3.231980102539061 0.3549999999999999 L 3.212480102539061 0.3549999999999999 Q 3.205480102539061 0.3549999999999999 3.201480102539061 0.3514999999999999 Q 3.197480102539061 0.3479999999999999 3.195980102539061 0.3424999999999999 L 3.133980102539061 0.1519999999999999 L 3.072480102539061 0.3424999999999999 Q 3.0704801025390607 0.3479999999999999 3.066730102539061 0.3514999999999999 Q 3.062980102539061 0.3549999999999999 3.0559801025390607 0.3549999999999999 L 3.036480102539061 0.3549999999999999 M 3.394492797851561 0.3549999999999999 Q 3.388992797851561 0.3549999999999999 3.3859927978515607 0.35174999999999995 Q 3.3829927978515606 0.3484999999999999 3.3829927978515606 0.3434999999999999 L 3.3829927978515606 0.016999999999999904 Q 3.3829927978515606 0.0114999999999999 3.3859927978515607 0.008249999999999924 Q 3.388992797851561 0.004999999999999893 3.394492797851561 0.004999999999999893 L 3.6009927978515606 0.004999999999999893 Q 3.6064927978515606 0.004999999999999893 3.6094927978515607 0.008249999999999924 Q 3.612492797851561 0.0114999999999999 3.612492797851561 0.016999999999999904 L 3.612492797851561 0.03599999999999992 Q 3.612492797851561 0.041499999999999926 3.6094927978515607 0.04449999999999993 Q 3.6064927978515606 0.04749999999999993 3.6009927978515606 0.04749999999999993 L 3.4309927978515606 0.04749999999999993 L 3.4309927978515606 0.15699999999999992 L 3.589992797851561 0.15699999999999992 Q 3.595492797851561 0.15699999999999992 3.5984927978515606 0.16024999999999992 Q 3.6014927978515607 0.16349999999999992 3.6014927978515607 0.16899999999999993 L 3.6014927978515607 0.18749999999999992 Q 3.6014927978515607 0.19249999999999992 3.5984927978515606 0.19574999999999992 Q 3.595492797851561 0.19899999999999993 3.589992797851561 0.19899999999999993 L 3.4309927978515606 0.19899999999999993 L 3.4309927978515606 0.31249999999999994 L 3.6049927978515606 0.31249999999999994 Q 3.6104927978515606 0.31249999999999994 3.6134927978515607 0.31549999999999995 Q 3.616492797851561 0.31849999999999995 3.616492797851561 0.32399999999999995 L 3.616492797851561 0.3434999999999999 Q 3.616492797851561 0.3484999999999999 3.6134927978515607 0.35174999999999995 Q 3.6104927978515606 0.3549999999999999 3.6049927978515606 0.3549999999999999 L 3.394492797851561 0.3549999999999999 M 3.6675018310546856 0.3549999999999999 Q 3.6635018310546856 0.3549999999999999 3.6605018310546855 0.3519999999999999 Q 3.6575018310546854 0.3489999999999999 3.6575018310546854 0.3449999999999999 Q 3.6575018310546854 0.3424999999999999 3.6580018310546856 0.3394999999999999 L 3.7820018310546857 0.015999999999999903 Q 3.7840018310546855 0.010999999999999899 3.7875018310546857 0.007999999999999896 Q 3.7910018310546856 0.004999999999999893 3.7980018310546857 0.004999999999999893 L 3.8320018310546855 0.004999999999999893 Q 3.8390018310546856 0.004999999999999893 3.8425018310546855 0.007999999999999896 Q 3.8460018310546857 0.010999999999999899 3.8480018310546855 0.015999999999999903 L 3.9715018310546855 0.3394999999999999 Q 3.972501831054686 0.3424999999999999 3.972501831054686 0.3449999999999999 Q 3.972501831054686 0.3489999999999999 3.9695018310546857 0.3519999999999999 Q 3.9665018310546856 0.3549999999999999 3.9625018310546856 0.3549999999999999 L 3.9370018310546855 0.3549999999999999 Q 3.9310018310546857 0.3549999999999999 3.9282518310546855 0.3519999999999999 Q 3.9255018310546856 0.3489999999999999 3.9245018310546858 0.3464999999999999 L 3.8970018310546855 0.2754999999999999 L 3.7330018310546857 0.2754999999999999 L 3.7055018310546854 0.3464999999999999 Q 3.7050018310546857 0.3489999999999999 3.7020018310546856 0.3519999999999999 Q 3.6990018310546855 0.3549999999999999 3.6930018310546857 0.3549999999999999 L 3.6675018310546856 0.3549999999999999 M 3.7475018310546857 0.23249999999999993 L 3.8825018310546855 0.23249999999999993 L 3.8150018310546856 0.05499999999999994 L 3.7475018310546857 0.23249999999999993 M 4.04249328613281 0.3549999999999999 Q 4.036993286132811 0.3549999999999999 4.0339932861328105 0.35174999999999995 Q 4.03099328613281 0.3484999999999999 4.03099328613281 0.3434999999999999 L 4.03099328613281 0.016499999999999904 Q 4.03099328613281 0.0114999999999999 4.0339932861328105 0.008249999999999924 Q 4.036993286132811 0.004999999999999893 4.04249328613281 0.004999999999999893 L 4.068993286132811 0.004999999999999893 Q 4.0739932861328105 0.004999999999999893 4.077243286132811 0.008249999999999924 Q 4.0804932861328105 0.0114999999999999 4.0804932861328105 0.016499999999999904 L 4.0804932861328105 0.31149999999999994 L 4.246493286132811 0.31149999999999994 Q 4.2519932861328105 0.31149999999999994 4.255243286132811 0.3147499999999999 Q 4.25849328613281 0.31799999999999995 4.25849328613281 0.3234999999999999 L 4.25849328613281 0.3434999999999999 Q 4.25849328613281 0.3484999999999999 4.255243286132811 0.35174999999999995 Q 4.2519932861328105 0.3549999999999999 4.246493286132811 0.3549999999999999 L 4.04249328613281 0.3549999999999999 M 4.34597814941406 0.3549999999999999 Q 4.3409781494140605 0.3549999999999999 4.33772814941406 0.35174999999999995 Q 4.3344781494140605 0.3484999999999999 4.3344781494140605 0.3434999999999999 L 4.3344781494140605 0.04949999999999993 L 4.23847814941406 0.04949999999999993 Q 4.2334781494140605 0.04949999999999993 4.23022814941406 0.0462499999999999 Q 4.226978149414061 0.04299999999999993 4.226978149414061 0.03799999999999992 L 4.226978149414061 0.016999999999999904 Q 4.226978149414061 0.0114999999999999 4.23022814941406 0.008249999999999924 Q 4.2334781494140605 0.004999999999999893 4.23847814941406 0.004999999999999893 L 4.47947814941406 0.004999999999999893 Q 4.484978149414061 0.004999999999999893 4.48822814941406 0.008249999999999924 Q 4.4914781494140605 0.0114999999999999 4.4914781494140605 0.016999999999999904 L 4.4914781494140605 0.03799999999999992 Q 4.4914781494140605 0.04299999999999993 4.48822814941406 0.0462499999999999 Q 4.484978149414061 0.04949999999999993 4.47947814941406 0.04949999999999993 L 4.383978149414061 0.04949999999999993 L 4.383978149414061 0.3434999999999999 Q 4.383978149414061 0.3484999999999999 4.38072814941406 0.35174999999999995 Q 4.377478149414061 0.3549999999999999 4.37197814941406 0.3549999999999999 L 4.34597814941406 0.3549999999999999 M 4.56396789550781 0.3549999999999999 Q 4.55846789550781 0.3549999999999999 4.55546789550781 0.35174999999999995 Q 4.55246789550781 0.3484999999999999 4.55246789550781 0.3434999999999999 L 4.55246789550781 0.016999999999999904 Q 4.55246789550781 0.0114999999999999 4.55546789550781 0.008249999999999924 Q 4.55846789550781 0.004999999999999893 4.56396789550781 0.004999999999999893 L 4.58946789550781 0.004999999999999893 Q 4.594967895507811 0.004999999999999893 4.59821789550781 0.008249999999999924 Q 4.6014678955078105 0.0114999999999999 4.6014678955078105 0.016999999999999904 L 4.6014678955078105 0.15499999999999992 L 4.77346789550781 0.15499999999999992 L 4.77346789550781 0.016999999999999904 Q 4.77346789550781 0.0114999999999999 4.776717895507811 0.008249999999999924 Q 4.77996789550781 0.004999999999999893 4.78496789550781 0.004999999999999893 L 4.81046789550781 0.004999999999999893 Q 4.815967895507811 0.004999999999999893 4.81921789550781 0.008249999999999924 Q 4.822467895507811 0.0114999999999999 4.822467895507811 0.016999999999999904 L 4.822467895507811 0.3434999999999999 Q 4.822467895507811 0.3484999999999999 4.81921789550781 0.35174999999999995 Q 4.815967895507811 0.3549999999999999 4.81046789550781 0.3549999999999999 L 4.78496789550781 0.3549999999999999 Q 4.77996789550781 0.3549999999999999 4.776717895507811 0.35174999999999995 Q 4.77346789550781 0.3484999999999999 4.77346789550781 0.3434999999999999 L 4.77346789550781 0.19999999999999993 L 4.6014678955078105 0.19999999999999993 L 4.6014678955078105 0.3434999999999999 Q 4.6014678955078105 0.3484999999999999 4.59821789550781 0.35174999999999995 Q 4.594967895507811 0.3549999999999999 4.58946789550781 0.3549999999999999 L 4.56396789550781 0.3549999999999999" fill="#d56a34" fill-rule="nonzero"></path></g><g clip-path="url(&quot;#SvgjsClipPath1001&quot;)"><g clip-path="url(&quot;#a77ec99b1-36ce-4e9a-aed1-608b59da6b800352e66c-2142-4212-b33b-2eb7355defba&quot;)"><path d=" M -0.9415822295497991 -0.1875 C -1.151721116470004 -0.1875 -1.3220309178445178 -0.35783693962655816 -1.3220309178445178 -0.5679314184979631 L -1.3220309178445178 -3.4877556928509343 C -1.3220309178445178 -3.6978329019255844 -1.151721116470004 -3.8681747757797864 -0.9415822295497991 -3.8681747757797864 L 0.9415805536228543 -3.8681747757797864 C 1.1516725653804372 -3.8681747757797864 1.322011972120818 -3.697832901925584 1.322011972120818 -3.4877556928509343 L 1.322011972120818 -0.5679314184979631 C 1.322011972120818 -0.35783693962655816 1.1516725653804372 -0.1875 0.9415805536228543 -0.1875 Z" fill="#d56a34" transform="matrix(1,0,0,1,0,0)" fill-rule="nonzero"></path></g><g clip-path="url(&quot;#SvgjsClipPath10000352e66c-2142-4212-b33b-2eb7355defba&quot;)"><path d=" M 1.0658939037021162 -0.6511544946417587 L -1.075876684541798 -0.6511544946417587 L -1.0708906475071203 -3.6042132592936644 L 1.0708799407367944 -3.6042132592936644 Z" fill="#c08c46" transform="matrix(1,0,0,1,0,0)" fill-rule="nonzero"></path></g><g clip-path="url(&quot;#b77ec99b1-36ce-4e9a-aed1-608b59da6b800352e66c-2142-4212-b33b-2eb7355defba&quot;)"><path d=" M -1.0708960005407184 -0.4601925578822339 C -1.0708960005407184 -0.4890503882605759 -1.0475028272785625 -0.5124361601812653 -1.0186499311278652 -0.5124361601812653 L -0.6176748558323939 -0.5124361601812653 C -0.5888318281369854 -0.5124361601812653 -0.5654312535333631 -0.4890503882605759 -0.5654312535333631 -0.4601925578822339 L -0.5654312535333631 -0.40578036253348415 C -0.5654312535333631 -0.37692253215514215 -0.5888318281369855 -0.35353922734827536 -0.6176748558323939 -0.35353922734827536 L -1.0186499311278652 -0.35353922734827536 C -1.0475028272785625 -0.35353922734827536 -1.0708960005407184 -0.37692253215514215 -1.0708960005407184 -0.40578036253348415 Z" fill="#c08c46" transform="matrix(1,0,0,1,0,0)" fill-rule="nonzero"></path></g><g clip-path="url(&quot;#b77ec99b1-36ce-4e9a-aed1-608b59da6b800352e66c-2142-4212-b33b-2eb7355defba&quot;)"><path d=" M 0.5654197091511293 -0.4601925578822339 C 0.5654197091511293 -0.4890503882605759 0.5888054810718186 -0.5124361601812653 0.6176633114501602 -0.5124361601812653 L 1.0186309854041649 -0.5124361601812653 C 1.0474764802133958 -0.5124361601812653 1.0708770548170183 -0.4890503882605759 1.0708770548170183 -0.4601925578822339 L 1.0708770548170183 -0.40578036253348415 C 1.0708770548170183 -0.37692253215514215 1.0474764802133958 -0.35353922734827536 1.0186309854041649 -0.35353922734827536 L 0.6176633114501602 -0.35353922734827536 C 0.5888054810718186 -0.35353922734827536 0.5654197091511293 -0.37692253215514215 0.5654197091511293 -0.40578036253348415 Z" fill="#c08c46" transform="matrix(1,0,0,1,0,0)" fill-rule="nonzero"></path></g><g clip-path="url(&quot;#b77ec99b1-36ce-4e9a-aed1-608b59da6b800352e66c-2142-4212-b33b-2eb7355defba&quot;)"><path d=" M 0.07944022711155596 -0.4329876937647703 C 0.07944022711155596 -0.389110074436839 0.0438693800229919 -0.35353922734827536 -0.000010706418761108338 -0.35353922734827536 C -0.04389079286051434 -0.35353922734827536 -0.07946163994907796 -0.389110074436839 -0.07946163994907796 -0.4329876937647703 C -0.07946163994907796 -0.4768653130927012 -0.04389079286051434 -0.5124361601812653 -0.000010706418761108338 -0.5124361601812653 C 0.0438693800229919 -0.5124361601812653 0.07944022711155596 -0.4768653130927012 0.07944022711155596 -0.4329876937647703" fill="#c08c46" transform="matrix(1,0,0,1,0,0)" fill-rule="nonzero"></path></g><g clip-path="url(&quot;#c77ec99b1-36ce-4e9a-aed1-608b59da6b800352e66c-2142-4212-b33b-2eb7355defba&quot;)"><path d=" M 1.065888550668518 -0.6511545690624327 L -1.075882037575396 -0.6511545690624327 L 1.0708745877031962 -3.604213333714339 Z" fill="#d56a34" transform="matrix(1,0,0,1,0,0)" fill-rule="nonzero" opacity="0.5"></path></g><g clip-path="url(&quot;#b77ec99b1-36ce-4e9a-aed1-608b59da6b800352e66c-2142-4212-b33b-2eb7355defba&quot;)"><path d=" M 0.7488323520353783 -2.2680146191523654 C 0.7488323520353783 -2.288434920258763 0.7471941884574336 -2.3084703516088965 0.744167039797587 -2.328044432674278 C 0.743831512317767 -2.3303240458459964 0.7433923660574142 -2.332564185196559 0.7429976278458614 -2.3348240614576996 C 0.7424252574391099 -2.3381768691420772 0.7418849595120465 -2.341542012395566 0.7412262401215175 -2.3448701489417214 C 0.7042787435201632 -2.536177556057029 0.5360191137319021 -2.6807010837618477 0.33392548498591035 -2.6807010837618477 C 0.19687731216237592 -2.6807010837618477 0.07553478593100382 -2.614143287066378 -0.000008239304939205994 -2.511728458078969 C -0.07555373165470414 -2.614143287066378 -0.19689379077225433 -2.6807010837618477 -0.333944430709611 -2.6807010837618477 C -0.5360380594556028 -2.6807010837618477 -0.7042976892438634 -2.536177556057029 -0.741245185845218 -2.3448701489417214 C -0.7419039052357473 -2.341542012395566 -0.7424442031628101 -2.3381768691420772 -0.7430165735695619 -2.3348240614576996 C -0.7434113117811147 -2.332564185196559 -0.7438504580414673 -2.330324045845996 -0.7441835184074651 -2.328044432674278 C -0.7472768545118279 -2.308183838560587 -0.7488373872071773 -2.288114662269231 -0.7488512977590787 -2.268014619152365 C -0.7488512977590787 -2.2676914272416564 -0.7488216923932123 -2.267387972241525 -0.7488216923932123 -2.267064780330816 C -0.7488364950761455 -2.266630568298108 -0.7488512977590787 -2.2662086918345103 -0.7488512977590787 -2.2657794140294465 C -0.7488512977590787 -2.256503066057953 -0.7484417568645925 -2.2473180012978804 -0.7478422482057966 -2.2381872130418965 C -0.7478274455228634 -2.2378837580417654 -0.7477830374740635 -2.237580303041634 -0.7477534321081973 -2.237271913813858 C -0.7470971798314905 -2.2274182612079683 -0.7461029329611416 -2.217650957585855 -0.744755888814217 -2.207989739858097 C -0.7439220043423115 -2.1983235879026948 -0.741025612715042 -2.1769879875682583 -0.7310214661659972 -2.145325048774069 C -0.7262805618956835 -2.1296705309905084 -0.7206000031624586 -2.114316133149883 -0.7140107163618881 -2.0993454484696183 C -0.6555647899138314 -1.9606714476372502 -0.4872311467109045 -1.7058210569172085 -0.0022607142246131584 -1.3880938033244292 L -0.000008239304939205994 -1.4001357858906158 L 0.0022442356147347464 -1.3880938033244292 C 0.48721220098720397 -1.7058210569172085 0.6555433770763086 -1.9606714476372502 0.7139917706381871 -2.0993454484696183 C 0.7205810574387583 -2.1143161331498828 0.7262616161719833 -2.1296705309905084 0.7310025204422965 -2.145325048774069 C 0.7410091341051634 -2.1769879875682583 0.7439030586186108 -2.1983235879026948 0.7447369430905164 -2.207989739858097 C 0.7460839872374407 -2.217650957585855 0.7470782341077897 -2.2274182612079683 0.7477369534983187 -2.237271913813858 C 0.747764091750363 -2.237580303041634 0.7478084997991625 -2.2378837580417654 0.7478233024820962 -2.2381872130418965 C 0.7484228111408919 -2.2473180012978804 0.7488323520353783 -2.256503066057953 0.7488323520353783 -2.2657794140294465 C 0.7488323520353783 -2.2662086918345103 0.7488200164662673 -2.266630568298108 0.748802746669512 -2.267064780330816 C 0.748802746669512 -2.267387972241525 0.7488323520353783 -2.2676914272416564 0.7488323520353783 -2.2680146191523654" fill="#d56a34" transform="matrix(1,0,0,1,0,0)" fill-rule="nonzero"></path></g><g clip-path="url(&quot;#b77ec99b1-36ce-4e9a-aed1-608b59da6b800352e66c-2142-4212-b33b-2eb7355defba&quot;)"><path d=" M 0.7488323520353783 -2.2680146191523654 C 0.7488323520353783 -2.288434920258763 0.7471941884574336 -2.3084703516088965 0.744167039797587 -2.328044432674278 C 0.743831512317767 -2.3303240458459964 0.7433923660574142 -2.332564185196559 0.7429976278458614 -2.3348240614576996 C 0.7424252574391099 -2.3381768691420772 0.7418849595120465 -2.341542012395566 0.7412262401215175 -2.3448701489417214 C 0.7042787435201632 -2.536177556057029 0.5360191137319021 -2.6807010837618477 0.33392548498591035 -2.6807010837618477 C 0.19687731216237592 -2.6807010837618477 0.07553478593100382 -2.614143287066378 -0.000008239304939205994 -2.511728458078969 C -0.07555373165470414 -2.614143287066378 -0.19689379077225433 -2.6807010837618477 -0.333944430709611 -2.6807010837618477 C -0.5360380594556028 -2.6807010837618477 -0.7042976892438634 -2.536177556057029 -0.741245185845218 -2.3448701489417214 C -0.7419039052357473 -2.341542012395566 -0.7424442031628101 -2.3381768691420772 -0.7430165735695619 -2.3348240614576996 C -0.7434113117811147 -2.332564185196559 -0.7438504580414673 -2.330324045845996 -0.7441835184074651 -2.328044432674278 C -0.7472768545118279 -2.308183838560587 -0.7488373872071773 -2.288114662269231 -0.7488512977590787 -2.268014619152365 C -0.7488512977590787 -2.2676914272416564 -0.7488216923932123 -2.267387972241525 -0.7488216923932123 -2.267064780330816 C -0.7488364950761455 -2.266630568298108 -0.7488512977590787 -2.2662086918345103 -0.7488512977590787 -2.2657794140294465 C -0.7488512977590787 -2.256503066057953 -0.7484417568645925 -2.2473180012978804 -0.7478422482057966 -2.2381872130418965 C -0.7478274455228634 -2.2378837580417654 -0.7477830374740635 -2.237580303041634 -0.7477534321081973 -2.237271913813858 C -0.7470971798314905 -2.2274182612079683 -0.7461029329611416 -2.217650957585855 -0.744755888814217 -2.207989739858097 C -0.7439220043423115 -2.1983235879026948 -0.741025612715042 -2.1769879875682583 -0.7310214661659972 -2.145325048774069 C -0.7262805618956835 -2.1296705309905084 -0.7206000031624586 -2.114316133149883 -0.7140107163618881 -2.0993454484696183 C -0.7064786178626933 -2.0814736759415595 -0.6970739799724448 -2.0616306794695576 -0.6854440054145665 -2.04001382815939 L -0.2881424626003597 -2.04001382815939 L -0.24426977750007328 -2.1873424642800563 C -0.24138818855573674 -2.197018484690748 -0.23190213590935516 -2.2038696597750134 -0.2223173987100857 -2.203388572579683 C -0.2122217451008921 -2.2032024033867463 -0.2034924667900233 -2.1962993381514373 -0.20098426548947157 -2.1865184482634397 L -0.14802026595435658 -1.9803072065481864 L -0.0597790058755201 -2.3393043401588254 C -0.05721320750042613 -2.3497426987405783 -0.04778636558577776 -2.357077428133996 -0.03689159094691674 -2.356381702036134 C -0.026156592343549168 -2.3558681395336323 -0.017288533564578268 -2.3478242228776605 -0.015733622807679204 -2.3371900236131946 L 0.0513595375872089 -1.8779935292274879 L 0.08900769451406987 -2.0972015265581216 C 0.09062422741796472 -2.106608712367432 0.0980092498815297 -2.113967020521442 0.10742223208301427 -2.115549452053866 C 0.11682686997326286 -2.117187615631811 0.12623150786351145 -2.1125864483533974 0.13082527380045872 -2.104245136520519 L 0.19880659517134092 -1.9809437219143156 L 0.2425559245805169 -2.0321462021803756 C 0.24682753446214956 -2.0371379332093844 0.2530682871125929 -2.0400122486632064 0.25963822068547016 -2.04001382815939 L 0.6854275268046881 -2.04001382815939 C 0.697055034248744 -2.0616306794695576 0.7064596721389931 -2.0814736759415595 0.7139917706381871 -2.0993454484696183 C 0.7205810574387583 -2.114316133149883 0.7262616161719837 -2.1296705309905093 0.7310025204422974 -2.1453250487740703 C 0.7410091341051634 -2.1769879875682583 0.7439030586186108 -2.1983235879026948 0.7447369430905164 -2.207989739858097 C 0.7460839872374407 -2.217650957585855 0.7470782341077897 -2.2274182612079683 0.7477369534983187 -2.237271913813858 C 0.747764091750363 -2.237580303041634 0.7478084997991625 -2.2378837580417654 0.7478233024820962 -2.2381872130418965 C 0.7484228111408919 -2.2473180012978804 0.7488323520353783 -2.256503066057953 0.7488323520353783 -2.2657794140294465 C 0.7488323520353783 -2.2662086918345103 0.7488200164662673 -2.266630568298108 0.748802746669512 -2.267064780330816 C 0.748802746669512 -2.267387972241525 0.7488323520353783 -2.2676914272416564 0.7488323520353783 -2.2680146191523654 M 0.21188229842903183 -1.9270816929479175 C 0.20708507378306984 -1.921484238073073 0.1998526422787661 -1.9185881325541498 0.19251792203853824 -1.9193275542047246 C 0.18518422507142263 -1.9200774514706855 0.17868510292448514 -1.9243776225152758 0.1751272367058092 -1.9308341730714926 L 0.1224420210326036 -2.026395359860814 L 0.07171816084805127 -1.731047295749263 C 0.06986490512889887 -1.7202636070240844 0.06051512450959762 -1.7123815003010172 0.04957334717993156 -1.7123786454566319 L 0.049297030431844524 -1.7123786454566319 C 0.03824900168622203 -1.7125182599428808 0.028941029456693634 -1.7206673117060292 0.02734218452803483 -1.7315999292454376 L -0.043582403632738576 -2.2169848368538596 L -0.12572989257072664 -1.8827698615872785 C -0.12818612539953733 -1.872767537560658 -0.13713125453888741 -1.865718011049292 -0.1474306257508493 -1.8656678285717474 C -0.15749891725927134 -1.8650806554820623 -0.1667357914096097 -1.8725683459324574 -0.1693015897847039 -1.8825428871156356 L -0.2243404320442941 -2.096833926598613 L -0.24985779030736932 -2.0111313266428263 C -0.2526954579306262 -2.0016095149790005 -0.2614501699514209 -1.995082107643762 -0.2713858255199375 -1.995080284115555 L -0.6594554284114498 -1.995080284115555 C -0.5691590625187161 -1.848908724377503 -0.3836592413408809 -1.6379704925789036 -0.0022607142246129364 -1.3880938033244288 L -0.000008239304938983949 -1.4001357858906158 L 0.0022442356147351905 -1.3880938033244292 C 0.3836402956171805 -1.6379704925789036 0.5691475181364822 -1.848908724377503 0.6594364826877495 -1.995080284115555 L 0.2699926973972684 -1.995080284115555 Z" fill="#3f170e" transform="matrix(1,0,0,1,0,0)" fill-rule="nonzero"></path></g></g></g><defs><clipPath id="SvgjsClipPath1001"><path d=" M -1.322030917844518 -3.868172258669778 h 2.644061835689036 v 3.680672258669778 h -2.644061835689036 Z"></path></clipPath><clipPath id="a77ec99b1-36ce-4e9a-aed1-608b59da6b800352e66c-2142-4212-b33b-2eb7355defba"><path d=" M -1.3220309178445178 -0.1875 L 1.322011972120817 -0.1875 L 1.322011972120817 -3.8681747757797864 L -1.3220309178445178 -3.8681747757797864 Z"></path></clipPath><clipPath id="SvgjsClipPath10000352e66c-2142-4212-b33b-2eb7355defba"><path d=" M -1.3220309178445178 -3.868172258669778 L 1.322030917844518 -3.868172258669778 L 1.322030917844518 -0.1875 L -1.3220309178445175 -0.1875 Z"></path></clipPath><clipPath id="b77ec99b1-36ce-4e9a-aed1-608b59da6b800352e66c-2142-4212-b33b-2eb7355defba"><path d=" M -1.3220309178445178 -0.1875 L 1.322011972120817 -0.1875 L 1.322011972120817 -3.8681747757797864 L -1.3220309178445178 -3.8681747757797864 Z"></path></clipPath><clipPath id="c77ec99b1-36ce-4e9a-aed1-608b59da6b800352e66c-2142-4212-b33b-2eb7355defba"><path d=" M -1.0783491513976022 -3.6066730461950782 L 1.073344168639224 -3.6066730461950782 L 1.073344168639224 -0.6486874552402271 L -1.0783491513976022 -0.6486874552402271 Z"></path></clipPath></defs></svg>